<svg width="20.000000" height="19.000000" viewBox="0 0 20 19" fill="none" xmlns="http://www.w3.org/2000/svg" xmlns:xlink="http://www.w3.org/1999/xlink">
	<desc>
			Created with Pixso.
	</desc>
	<defs/>
	<path id="Vector" d="M10 2C7.87 2 5.84 2.84 4.34 4.34C2.84 5.84 2 7.87 2 10L5 10C5.53 10 6.03 10.21 6.41 10.58C6.78 10.96 7 11.46 7 12L7 17C7 17.53 6.78 18.03 6.41 18.41C6.03 18.78 5.53 19 5 19L2 19C1.46 19 0.96 18.78 0.58 18.41C0.21 18.03 0 17.53 0 17L0 10C0 4.47 4.47 0 10 0C15.52 0 20 4.47 20 10L20 17C20 17.53 19.78 18.03 19.41 18.41C19.03 18.78 18.53 19 18 19L15 19C14.46 19 13.96 18.78 13.58 18.41C13.21 18.03 13 17.53 13 17L13 12C13 11.46 13.21 10.96 13.58 10.58C13.96 10.21 14.46 10 15 10L18 10C18 7.87 17.15 5.84 15.65 4.34C14.15 2.84 12.12 2 10 2ZM2 12L2 17L5 17L5 12L2 12ZM15 12L15 17L18 17L18 12L15 12Z" fill="#242424" fill-opacity="1.000000" fill-rule="nonzero"/>
</svg>
