<svg width="64.000000" height="24.000000" viewBox="0 0 64 24" fill="none" xmlns="http://www.w3.org/2000/svg" xmlns:xlink="http://www.w3.org/1999/xlink">
	<desc>
			Created with Pixso.
	</desc>
	<defs>
		<clipPath id="clip1099_8529">
			<rect id="headphone-line" rx="-0.500000" width="23.000000" height="23.000000" transform="translate(0.500000 0.500000)" fill="white" fill-opacity="0"/>
		</clipPath>
		<clipPath id="clip1099_8530">
			<rect id="book-mark-line" rx="-0.500000" width="23.000000" height="23.000000" transform="translate(40.500000 0.500000)" fill="white" fill-opacity="0"/>
		</clipPath>
	</defs>
	<rect id="headphone-line" rx="-0.500000" width="23.000000" height="23.000000" transform="translate(0.500000 0.500000)" fill="#FFFFFF" fill-opacity="0"/>
	<g clip-path="url(#clip1099_8529)">
		<path id="Vector" d="M12 4C9.87 4 7.84 4.84 6.34 6.34C4.84 7.84 4 9.87 4 12L7 12C7.53 12 8.03 12.21 8.41 12.58C8.78 12.96 9 13.46 9 14L9 19C9 19.53 8.78 20.03 8.41 20.41C8.03 20.78 7.53 21 7 21L4 21C3.46 21 2.96 20.78 2.58 20.41C2.21 20.03 2 19.53 2 19L2 12C2 6.47 6.47 2 12 2C17.52 2 22 6.47 22 12L22 19C22 19.53 21.78 20.03 21.41 20.41C21.03 20.78 20.53 21 20 21L17 21C16.46 21 15.96 20.78 15.58 20.41C15.21 20.03 15 19.53 15 19L15 14C15 13.46 15.21 12.96 15.58 12.58C15.96 12.21 16.46 12 17 12L20 12C20 9.87 19.15 7.84 17.65 6.34C16.15 4.84 14.12 4 12 4ZM4 14L4 19L7 19L7 14L4 14ZM17 14L17 19L20 19L20 14L17 14Z" fill="#9A9A9A" fill-opacity="1.000000" fill-rule="nonzero"/>
	</g>
	<rect id="book-mark-line" rx="-0.500000" width="23.000000" height="23.000000" transform="translate(40.500000 0.500000)" fill="#FFFFFF" fill-opacity="0"/>
	<g clip-path="url(#clip1099_8530)">
		<path id="Vector" d="M43 18.5L43 5C43 4.2 43.31 3.44 43.87 2.87C44.44 2.31 45.2 2 46 2L60 2C60.26 2 60.51 2.1 60.7 2.29C60.89 2.48 61 2.73 61 3L61 21C61 21.26 60.89 21.51 60.7 21.7C60.51 21.89 60.26 22 60 22L46.5 22C45.57 22 44.68 21.63 44.02 20.97C43.36 20.31 43 19.42 43 18.5ZM59 20L59 17L46.5 17C46.1 17 45.72 17.15 45.43 17.43C45.15 17.72 45 18.1 45 18.5C45 18.89 45.15 19.27 45.43 19.56C45.72 19.84 46.1 20 46.5 20L59 20ZM50 4L46 4C45.73 4 45.48 4.1 45.29 4.29C45.1 4.48 45 4.73 45 5L45 15.33C45.46 15.11 45.98 14.99 46.5 15L59 15L59 4L57 4L57 12L53.5 10L50 12L50 4Z" fill="#9A9A9A" fill-opacity="1.000000" fill-rule="nonzero"/>
	</g>
</svg>
