<svg width="317.000000" height="204.000000" viewBox="0 0 217 104" fill="none" xmlns="http://www.w3.org/2000/svg" xmlns:xlink="http://www.w3.org/1999/xlink">
	<desc>
			Created with Pixso.
	</desc>
	<defs>
		<filter id="filter_1005_3984_dd" x="0.000000" y="0.000000" width="300.000000" height="200.000000" filterUnits="userSpaceOnUse" color-interpolation-filters="sRGB">
			<feFlood flood-opacity="0" result="BackgroundImageFix"/>
			<feColorMatrix in="SourceAlpha" type="matrix" values="0 0 0 0 0 0 0 0 0 0 0 0 0 0 0 0 0 0 127 0" result="hardAlpha"/>
			<feOffset dx="0" dy="25"/>
			<feGaussianBlur stdDeviation="11"/>
			<feComposite in2="hardAlpha" operator="out" k2="-1" k3="1"/>
			<feColorMatrix type="matrix" values="0 0 0 0 0.36471 0 0 0 0 0.43922 0 0 0 0 0.82745 0 0 0 0.25 0"/>
			<feBlend mode="normal" in2="BackgroundImageFix" result="effect_dropShadow_1"/>
			<feBlend mode="normal" in="SourceGraphic" in2="effect_dropShadow_1" result="shape"/>
		</filter>
		<clipPath id="clip1005_3987">
			<rect id="profile 1" rx="-0.500000" width="23.000000" height="23.000000" transform="translate(57.500000 15.500000)" fill="white" fill-opacity="0"/>
		</clipPath>
	</defs>
	<g filter="url(#filter_1005_3984_dd)">
		<rect id="CreateAccount" rx="13.500000" width="150.000000" height="37.000000" transform="translate(33.500000 8.500000)" fill="#3F51B5" fill-opacity="1.000000"/>
		<rect id="profile 1" rx="-0.500000" width="23.000000" height="23.000000" transform="translate(57.500000 15.500000)" fill="#FFFFFF" fill-opacity="0"/>
		<g clip-path="url(#clip1005_3987)">
			<path id="Vector" d="M69 28.2C65.13 28.2 62 31.12 62 34.73L62 36.6C62 37.11 61.55 37.53 61 37.53C60.44 37.53 60 37.11 60 36.6L60 34.73C60 30.09 64.02 26.33 69 26.33C73.97 26.33 78 30.09 78 34.73L78 36.6C78 37.11 77.55 37.53 77 37.53C76.44 37.53 76 37.11 76 36.6L76 34.73C76 31.12 72.86 28.2 69 28.2Z" fill="#FFFFFF" fill-opacity="1.000000" fill-rule="evenodd"/>
			<path id="Vector" d="M69 26.33C71.2 26.33 73 24.66 73 22.6C73 20.53 71.2 18.86 69 18.86C66.79 18.86 65 20.53 65 22.6C65 24.66 66.79 26.33 69 26.33ZM69 28.2C72.31 28.2 75 25.69 75 22.6C75 19.5 72.31 17 69 17C65.68 17 63 19.5 63 22.6C63 25.69 65.68 28.2 69 28.2Z" fill="#FFFFFF" fill-opacity="1.000000" fill-rule="evenodd"/>
		</g>
		<path id="Кириш" d="M102 34L105.09 34L100.16 27.32L104.84 21.14L101.94 21.14L97.33 27.37L97.33 21.14L94.62 21.14L94.62 34L97.33 34L97.33 27.48L102 34ZM126.45 24.32Q125.77 23.99 124.93 23.99Q123.87 23.99 123.2 24.42Q122.53 24.85 122.14 25.44L122.01 25.44L121.63 24.17L119.45 24.17L119.45 38.31L122.14 38.31L122.14 34.36Q122.14 33.67 121.99 32.91L122.14 32.91Q122.53 33.4 123.16 33.79Q123.8 34.18 124.85 34.18Q125.65 34.18 126.31 33.87Q127.02 33.55 127.57 32.87Q128.63 31.56 128.63 29.06Q128.63 26.56 127.61 25.28Q127.11 24.64 126.45 24.32ZM109.06 28.81Q109.09 28.36 109.09 28.05L109.09 24.17L106.49 24.17L106.49 34L109.72 34L114.24 27.12Q114.22 27.39 114.17 27.9Q114.13 28.41 114.09 29Q114.06 29.58 114.06 30.07L114.06 34L116.65 34L116.65 24.17L113.42 24.17L108.89 31.06Q108.91 30.92 108.94 30.56Q108.98 30.2 109.01 29.73Q109.03 29.26 109.06 28.81ZM133.41 28.81Q133.44 28.36 133.44 28.05L133.44 24.17L130.85 24.17L130.85 34L134.07 34L138.59 27.12Q138.57 27.39 138.52 27.9Q138.48 28.41 138.45 29Q138.41 29.58 138.41 30.07L138.41 34L141 34L141 24.17L137.78 24.17L133.24 31.06Q133.26 30.92 133.3 30.56Q133.33 30.2 133.36 29.73Q133.39 29.26 133.41 28.81ZM158.45 34L158.45 24.17L155.76 24.17L155.76 31.98L152.47 31.98L152.47 24.17L149.78 24.17L149.78 31.98L146.49 31.98L146.49 24.17L143.81 24.17L143.81 34L158.45 34ZM122.79 26.55Q123.22 26.13 124.06 26.13Q124.59 26.13 124.96 26.37Q125.9 26.96 125.9 29.03Q125.9 30.47 125.46 31.23Q125.25 31.58 124.95 31.77Q124.59 32 124.1 32Q123.29 32 122.84 31.59Q122.68 31.44 122.56 31.23Q122.14 30.47 122.14 29.05L122.14 28.76Q122.17 27.43 122.6 26.78Q122.68 26.65 122.79 26.55Z" fill="#FFFFFF" fill-opacity="1.000000" fill-rule="evenodd"/>
	</g>
</svg>
