<svg width="230.000000" height="220.000000" viewBox="0 0 230 220" fill="none" xmlns="http://www.w3.org/2000/svg" xmlns:xlink="http://www.w3.org/1999/xlink">
	<desc>
			Created with Pixso.
	</desc>
	<defs/>
	<mask id="mask1005_5558" mask-type="alpha" maskUnits="userSpaceOnUse" x="0.000000" y="0.000000" width="230.000000" height="220.000000">
		<rect id="Rectangle 468" rx="12.000000" width="230.000015" height="220.000000" transform="matrix(-1 0 0 1 230 0)" fill="#FF7F4D" fill-opacity="1.000000"/>
	</mask>
	<g mask="url(#mask1005_5558)">
		<path id="Vector" d="M6.81 282.48L12.62 264.41C12.62 264.41 49.86 262.75 50.16 265.38C50.47 268.01 41.24 289.87 38.78 289.87C36.32 289.87 6.81 282.48 6.81 282.48Z" fill="#0E6AC3" fill-opacity="1.000000" fill-rule="nonzero"/>
		<path id="Vector" d="M129.26 237.65C125.98 233.52 124.18 230.08 123.21 227.36L122.56 227.76C119.11 212.31 125.75 197.27 125.75 197.27L147.72 191.12C147.72 191.12 151.11 201.71 153.88 208.24C158.19 214.05 165.16 215.9 165.16 215.9L169.42 244.01C169.43 244.01 138.69 249.55 129.26 237.65Z" fill="#E54728" fill-opacity="1.000000" fill-rule="nonzero"/>
		<path id="Vector" d="M97.56 167.99C83.42 176.21 69.3 180.35 52.98 179.33L7.43 156.55C1.63 140.2 -2.86 123.05 -2.04 105.73C-1.23 88.4 5.48 70.75 18.86 59.73C25.18 54.52 32.72 50.96 38.99 45.7C47.86 38.25 54.06 27.55 64.25 22.05C80.42 13.32 103.06 17.03 110.81 34.11C122.56 32.88 136.96 44.5 127.2 76.42C124.53 85.16 120.12 96.8 121.57 105.82C125.75 131.9 116.62 156.91 97.56 167.99Z" fill="#2E0031" fill-opacity="1.000000" fill-rule="nonzero"/>
		<path id="Vector" d="M-5.71 162.96C-0.37 124.51 31.39 117.82 31.39 117.82L96.64 120.13C96.64 120.13 112.95 120.83 124.95 135.72C136.95 150.6 142.95 156.6 143.42 170.45C143.88 184.3 135.57 204.15 131.88 211.07C128.18 218 130.95 236.46 130.95 236.46C130.95 236.46 81.29 284.01 6.81 273.54C8.97 267.18 11.24 260.42 11.87 254.94C-4.31 230.47 -10.16 195.01 -5.71 162.96Z" fill="#FF572F" fill-opacity="1.000000" fill-rule="nonzero"/>
		<path id="Vector" d="M132.64 234.44C132.77 235.04 132.47 235.66 131.85 235.83C131.29 235.98 130.59 235.64 130.47 235.04C129.33 229.77 129.05 224.33 129.66 218.98C130.27 213.54 131.73 208.24 134.01 203.26C135.27 200.52 136.79 197.9 138.54 195.44C138.89 194.94 139.52 194.71 140.08 195.04C140.57 195.32 140.84 196.08 140.49 196.58C137.47 200.81 135.17 205.52 133.68 210.49C132.19 215.44 131.49 220.6 131.61 225.76C131.68 228.69 132.03 231.58 132.64 234.44Z" fill="#180205" fill-opacity="1.000000" fill-rule="nonzero"/>
		<path id="Vector" d="M50.63 70.74C50.01 58.58 60.63 60.27 63.4 65.96C63.4 65.96 75.71 66.43 83.25 55.04C90.79 43.65 102.85 42.88 107.92 49.5C107.92 49.5 115.57 48.12 116.65 59.65C117.72 71.19 113.08 107.51 89.7 107.05C89.7 107.05 89.87 115.98 90.48 119.06L96.64 120.13C96.64 120.13 91.85 134.81 68.79 135.67C40.01 136.75 31.39 117.82 31.39 117.82L48.32 113.83C48.32 113.83 59.71 98.74 61.86 81.2C61.86 81.2 51.24 82.89 50.63 70.74Z" fill="#FFBEAE" fill-opacity="1.000000" fill-rule="nonzero"/>
		<path id="Vector" d="M46.27 132.69C41.93 130.76 37.91 128.16 34.36 125.01C33.91 124.6 33.95 123.82 34.36 123.41C34.81 122.96 35.5 123.01 35.96 123.41C41.98 128.75 49.46 132.33 57.35 133.82C65.3 135.31 73.56 134.46 81.1 131.6C85.32 129.99 89.33 127.73 92.85 124.91C93.32 124.53 93.98 124.44 94.45 124.91C94.84 125.31 94.92 126.13 94.45 126.51C87.71 131.88 79.61 135.3 71.07 136.42C62.64 137.52 54.02 136.14 46.27 132.69Z" fill="#180205" fill-opacity="1.000000" fill-rule="nonzero"/>
		<path id="Vector" d="M49.08 213.69C48.28 210.71 47.49 207.74 46.69 204.77C45.43 200.05 44.17 195.34 42.9 190.62C42.61 189.53 42.32 188.45 42.03 187.37C41.66 185.97 43.84 185.37 44.21 186.77C45.01 189.74 45.8 192.71 46.6 195.69C47.86 200.4 49.12 205.12 50.39 209.84C50.68 210.92 50.97 212 51.26 213.08C51.63 214.49 49.45 215.09 49.08 213.69Z" fill="#180205" fill-opacity="1.000000" fill-rule="nonzero"/>
		<path id="Vector" d="M33.09 175.99L80.63 123.37C80.63 123.37 102.49 125.83 119.6 130.17C136.72 134.52 152.33 142.76 152.33 142.76C152.33 142.76 160.96 134.45 176.04 132.46C191.12 130.47 212.05 128.6 212.05 128.6L218.41 136.31L162.19 164.22L35.62 188.08L33.09 175.99Z" fill="#FCF4E6" fill-opacity="1.000000" fill-rule="nonzero"/>
		<path id="Vector" d="M104.64 205.54L33.09 191.12L81.24 133.5L143.44 146.91L155.89 146.91L221.9 135.72L176.2 191.12L123.57 203.23L104.64 205.54Z" fill="#0E6AC3" fill-opacity="1.000000" fill-rule="nonzero"/>
		<path id="Vector" d="M143.44 146.91L155.89 146.91L123.57 203.23L104.64 205.54L143.44 146.91Z" fill="#1058C1" fill-opacity="1.000000" fill-rule="nonzero"/>
		<path id="Vector" d="M118.03 197.27L108.18 205.54C108.18 205.54 97.41 200.39 92.79 195.27C92.79 195.27 100.8 189.69 102.03 176.15C103.26 162.61 109.88 163.53 112.95 165.07C116.03 166.61 115.26 171.22 119.57 172.14C123.88 173.07 140.19 161.99 147.43 164.91C154.66 167.84 152.97 176.3 148.35 181.69C143.73 187.07 132.96 195.17 118.03 197.27Z" fill="#FFBEAE" fill-opacity="1.000000" fill-rule="nonzero"/>
		<path id="Vector" d="M26.16 264.16C7.67 261.52 -2.99 229.4 -5.68 198.64C-7.23 181.02 50.16 213.39 50.16 213.39C58.01 211.08 95.41 191.12 95.41 191.12C103.72 199.32 111.56 204.61 111.56 204.61C102.33 218.46 55.24 268.32 26.16 264.16Z" fill="#FF572F" fill-opacity="1.000000" fill-rule="nonzero"/>
		<path id="Vector" d="M26.46 263.08C26.49 263.08 26.51 263.09 26.54 263.09C26.54 263.09 26.52 263.09 26.46 263.08Z" fill="#180205" fill-opacity="1.000000" fill-rule="nonzero"/>
		<path id="Vector" d="" fill="#180205" fill-opacity="1.000000" fill-rule="nonzero"/>
		<path id="Vector" d="" fill="#180205" fill-opacity="1.000000" fill-rule="nonzero"/>
		<path id="Vector" d="M95.98 192.09C95.72 192.22 95.47 192.36 95.21 192.49C95.01 192.3 94.81 192.11 94.61 191.92C95.07 191.98 95.52 192.03 95.98 192.09Z" fill="#180205" fill-opacity="1.000000" fill-rule="nonzero"/>
		<path id="Vector" d="M95.21 192.49C95.47 192.36 95.72 192.23 95.98 192.09C95.52 192.03 95.07 191.98 94.61 191.92C94.81 192.11 95.01 192.3 95.21 192.49C93.96 193.14 92.72 193.79 91.47 194.43C87.79 196.33 84.11 198.22 80.43 200.1C75.79 202.46 71.14 204.81 66.48 207.13C62.07 209.32 57.64 211.49 53.18 213.57C50.19 214.97 47.18 216.43 44.05 217.5C43.84 217.57 43.63 217.64 43.42 217.71C42.02 218.12 41.43 215.94 42.82 215.53C43.94 215.2 45.02 214.74 46.1 214.29C46.11 214.29 46.11 214.29 46.12 214.28C46.13 214.28 46.13 214.28 46.13 214.27C46.21 214.24 46.3 214.21 46.38 214.17C46.58 214.09 46.78 214 46.98 213.91C47.38 213.74 47.77 213.57 48.16 213.39C49.05 213 49.93 212.6 50.81 212.19C55.14 210.19 59.42 208.1 63.7 205.99C68.4 203.66 73.08 201.3 77.75 198.93C81.6 196.97 85.44 195 89.27 193.02C91.1 192.08 92.91 191.09 94.75 190.18C94.78 190.17 94.8 190.15 94.83 190.14C95.28 189.9 95.82 189.95 96.2 190.31C100.82 194.87 105.79 199.12 111.07 202.89C111.42 203.14 111.77 203.39 112.13 203.63C112.61 203.96 112.89 204.64 112.53 205.18C110.53 208.17 108.22 210.96 105.89 213.7C102.54 217.63 99.02 221.42 95.4 225.1C91.1 229.46 86.65 233.68 82.04 237.72C77.19 241.97 72.16 246.03 66.92 249.79C61.93 253.36 56.73 256.67 51.25 259.42C46.41 261.85 41.29 263.91 35.95 264.91C31.07 265.82 25.9 265.9 21.25 263.93C15.74 261.59 11.56 256.92 8.36 252C4.29 245.75 1.5 238.67 -0.68 231.56C-3.18 223.38 -4.84 214.96 -5.95 206.49C-6.23 204.4 -6.47 202.3 -6.67 200.19C-6.73 199.59 -6.11 199.07 -5.54 199.07C-4.88 199.07 -4.47 199.58 -4.41 200.19C-3.6 208.61 -2.22 216.98 -0.12 225.18C1.77 232.54 4.21 239.85 7.79 246.58C10.58 251.81 14.24 257.06 19.19 260.28C21.4 261.71 23.6 262.62 26.22 263.03C26.28 263.04 26.51 263.07 26.53 263.08C26.51 263.07 26.48 263.07 26.46 263.07C26.52 263.08 26.54 263.08 26.53 263.08C26.62 263.09 26.72 263.1 26.81 263.11C27.09 263.15 27.38 263.17 27.66 263.19C28.22 263.24 28.79 263.26 29.35 263.27C30.5 263.29 31.64 263.23 32.78 263.11C33.05 263.09 33.32 263.05 33.58 263.02C33.68 263.01 33.7 263 33.7 263C33.71 263 33.73 263 33.82 262.98C33.99 262.96 34.15 262.94 34.31 262.91C34.9 262.81 35.49 262.71 36.07 262.59C37.32 262.33 38.55 262.02 39.76 261.66C42.3 260.9 44.8 259.94 47.11 258.9C52.49 256.48 57.59 253.45 62.47 250.15C67.67 246.63 72.63 242.78 77.42 238.73C82.12 234.76 86.65 230.59 91.03 226.27C94.85 222.51 98.56 218.62 102.12 214.61C103.57 212.97 104.99 211.31 106.37 209.62C106.96 208.89 107.55 208.16 108.12 207.43C108.15 207.39 108.24 207.27 108.26 207.25C108.24 207.28 108.21 207.31 108.19 207.34C108.25 207.25 108.27 207.23 108.26 207.25C108.29 207.2 108.32 207.16 108.36 207.12C108.49 206.94 108.62 206.78 108.75 206.6C108.98 206.3 109.21 205.99 109.43 205.68C109.62 205.41 109.81 205.14 109.99 204.88C110.32 205.11 110.66 205.34 110.99 205.57C110.86 205.05 110.72 204.54 110.59 204.02C110.4 204.31 110.19 204.59 109.99 204.88C106.51 202.44 103.21 199.72 100.02 196.93C98.38 195.51 96.78 194.02 95.21 192.49Z" fill="#180205" fill-opacity="1.000000" fill-rule="nonzero"/>
		<path id="Vector" d="M108.19 207.35C108.21 207.32 108.23 207.29 108.26 207.26C108.27 207.25 108.25 207.27 108.19 207.35Z" fill="#180205" fill-opacity="1.000000" fill-rule="nonzero"/>
		<path id="Vector" d="M110.99 205.59C110.66 205.36 110.32 205.13 109.99 204.9C110.19 204.62 110.4 204.33 110.59 204.05C110.73 204.56 110.86 205.07 110.99 205.59Z" fill="#180205" fill-opacity="1.000000" fill-rule="nonzero"/>
		<path id="Vector" d="M165.27 169.51C167.73 163.65 187.07 151.87 197.89 164.81C208.72 177.76 193.27 195.27 193.27 195.27L188.97 207.38C179.73 210.77 166.19 203.07 166.19 203.07L169.27 198.76C166.19 188.92 170.19 184.88 170.19 184.88C164.96 181.77 162.81 175.38 165.27 169.51Z" fill="#FFBEAE" fill-opacity="1.000000" fill-rule="nonzero"/>
		<path id="Vector" d="M153.88 208.25C153.88 208.25 163.13 204.06 165.89 200.23C165.89 200.23 174.2 204.92 191.12 205.54C191.12 205.54 185.27 236.01 169.42 244.01L153.88 208.25Z" fill="#E54728" fill-opacity="1.000000" fill-rule="nonzero"/>
		<path id="Vector" d="M232.67 434.83C229.59 425.59 224.06 415.75 204.97 397.28C185.89 378.81 164.25 343.11 164.25 343.11C164.25 343.11 124.34 347.42 100.33 351.73C76.33 356.04 37.36 361.68 17.23 333.88C-2.14 307.1 6.81 282.48 6.81 282.48L27.08 283.41C27.08 283.41 76.91 240.65 108.33 234.78C139.76 228.91 175.43 231.7 195.12 260.63C214.82 289.56 262.83 420.05 262.83 420.05C245.6 445.9 232.67 434.83 232.67 434.83Z" fill="#0E6AC3" fill-opacity="1.000000" fill-rule="nonzero"/>
		<path id="Vector" d="M27.09 343.97C74.11 359.3 101.34 314.95 101.34 314.95L93.97 352.82C73.72 356.12 46.27 358.48 27.09 343.97Z" fill="#180205" fill-opacity="1.000000" fill-rule="nonzero"/>
		<path id="Vector" d="M194.15 261.2C189.78 254.8 184.25 249.24 177.78 244.97C171.62 240.9 164.76 238.03 157.62 236.18C143.04 232.41 127.57 232.78 112.8 235.14C109.73 235.63 106.68 236.19 103.68 237.04C100.83 237.85 98.04 238.85 95.29 239.97C89.16 242.46 83.26 245.54 77.51 248.83C66.11 255.37 55.27 262.86 44.78 270.76C39.11 275.03 33.56 279.43 28.13 283.99C28.05 284.06 27.97 284.13 27.89 284.2C26.79 285.14 25.18 283.55 26.29 282.61C30.9 278.65 35.69 274.89 40.51 271.19C50.84 263.27 61.5 255.75 72.68 249.06C78.54 245.54 84.56 242.25 90.81 239.46C96.28 237.01 101.97 234.85 107.88 233.72C122.91 230.85 138.65 229.98 153.73 232.98C168.72 235.97 182.67 243.3 192.46 255.21C193.75 256.77 194.96 258.39 196.1 260.06C196.92 261.26 194.96 262.39 194.15 261.2Z" fill="#180205" fill-opacity="1.000000" fill-rule="nonzero"/>
		<path id="Vector" d="M96.02 450.83C96.02 450.83 92.02 399.74 92.79 370.19C93.56 340.65 106.46 261.95 152.33 272.37C198.2 282.79 166.16 365.27 152.33 384.96C138.49 404.66 128.19 445.28 127.49 455.13C127.49 455.13 109.56 456.36 96.02 450.83Z" fill="#0E6AC3" fill-opacity="1.000000" fill-rule="nonzero"/>
		<path id="Vector" d="M171.67 289.6C171.67 289.58 171.66 289.56 171.65 289.54C171.69 289.63 171.69 289.63 171.67 289.6Z" fill="#180205" fill-opacity="1.000000" fill-rule="nonzero"/>
		<path id="Vector" d="M167.95 283.14C167.95 283.13 167.94 283.13 167.94 283.12C168.01 283.22 167.99 283.19 167.95 283.14Z" fill="#180205" fill-opacity="1.000000" fill-rule="nonzero"/>
		<path id="Vector" d="M174.49 300.4C174.49 300.38 174.49 300.36 174.49 300.34C174.49 300.4 174.5 300.41 174.49 300.4Z" fill="#180205" fill-opacity="1.000000" fill-rule="nonzero"/>
		<path id="Vector" d="M163.48 278.64C163.53 278.69 163.52 278.67 163.48 278.65C163.44 278.62 163.4 278.58 163.48 278.64Z" fill="#180205" fill-opacity="1.000000" fill-rule="nonzero"/>
		<path id="Vector" d="M162.02 363.92C161.99 363.99 162 363.96 162.02 363.92C162.03 363.89 162.04 363.87 162.02 363.92Z" fill="#180205" fill-opacity="1.000000" fill-rule="nonzero"/>
		<path id="Vector" d="M132.78 274.85C132.76 274.85 132.74 274.86 132.73 274.87C132.82 274.83 132.82 274.83 132.78 274.85Z" fill="#180205" fill-opacity="1.000000" fill-rule="nonzero"/>
		<path id="Vector" d="M157.61 275.23C157.59 275.22 157.57 275.21 157.55 275.2C157.53 275.2 157.54 275.2 157.61 275.23Z" fill="#180205" fill-opacity="1.000000" fill-rule="nonzero"/>
		<path id="Vector" d="M95.54 350.95C95.53 351.09 95.51 351.23 95.49 351.37C95.35 352.4 95.22 353.43 95.1 354.46C94.67 358.17 94.33 361.9 94.11 365.63C94.03 367.15 93.96 368.67 93.92 370.19C93.88 371.64 91.62 371.65 91.66 370.19C91.75 366.78 91.97 363.38 92.28 359.98C92.65 355.79 93.16 351.62 93.77 347.46C94.44 342.92 95.25 338.4 96.2 333.9C97.21 329.17 98.38 324.47 99.74 319.82C101.11 315.18 102.68 310.59 104.51 306.1C106.29 301.76 108.3 297.51 110.67 293.46C112.88 289.67 115.42 286.04 118.36 282.77C121.08 279.75 124.19 277.04 127.68 274.94C131.07 272.89 134.83 271.43 138.74 270.77C143.07 270.04 147.48 270.22 151.78 271.1C155.91 271.95 159.95 273.47 163.44 275.85C166.63 278.03 169.31 280.84 171.36 284.11C173.43 287.41 174.84 291.11 175.75 294.88C176.74 299.01 177.18 303.28 177.26 307.52C177.35 312.09 177.02 316.66 176.43 321.19C175.8 326.01 174.9 330.79 173.77 335.51C172.66 340.18 171.34 344.79 169.85 349.34C168.43 353.69 166.86 358 165.13 362.24C163.57 366.09 161.9 369.89 160.07 373.62C158.62 376.6 157.07 379.53 155.35 382.37C154.7 383.44 154.02 384.51 153.3 385.54C152.95 386.03 152.31 386.27 151.75 385.94C151.26 385.65 151 384.9 151.35 384.4C152.97 382.09 154.38 379.65 155.72 377.17C157.47 373.92 159.08 370.58 160.58 367.21C161 366.27 161.42 365.33 161.82 364.38C161.87 364.26 161.91 364.15 161.96 364.04C161.97 364.02 161.99 363.96 162.01 363.93C162 363.96 161.98 364 162.01 363.93C162.04 363.87 162.03 363.89 162.01 363.93C162.02 363.9 162.03 363.87 162.03 363.87C162.14 363.61 162.25 363.35 162.36 363.09C162.57 362.59 162.77 362.09 162.97 361.6C163.81 359.54 164.61 357.47 165.37 355.39C166.98 351.01 168.43 346.57 169.72 342.08C171.03 337.49 172.16 332.85 173.05 328.15C173.93 323.51 174.52 319.23 174.83 314.51C175.12 310.17 175.1 305.8 174.62 301.47C174.59 301.23 174.56 300.99 174.53 300.75C174.52 300.64 174.5 300.52 174.49 300.41C174.49 300.42 174.49 300.41 174.48 300.34C174.48 300.36 174.48 300.38 174.49 300.41C174.48 300.38 174.46 300.19 174.45 300.13C174.38 299.63 174.3 299.12 174.21 298.62C174.04 297.63 173.84 296.65 173.61 295.68C173.17 293.8 172.6 291.94 171.89 290.15C171.82 289.96 171.74 289.78 171.67 289.6C171.68 289.63 171.68 289.63 171.64 289.54C171.65 289.56 171.66 289.58 171.67 289.6C171.65 289.55 171.59 289.4 171.58 289.38C171.53 289.26 171.47 289.15 171.42 289.04C171.23 288.61 171.03 288.19 170.83 287.77C170.41 286.95 169.96 286.15 169.48 285.37C169.01 284.6 168.49 283.86 167.95 283.14C167.99 283.2 168.01 283.22 167.93 283.12C167.94 283.13 167.94 283.14 167.95 283.14C167.92 283.1 167.88 283.05 167.86 283.03C167.79 282.94 167.73 282.86 167.66 282.78C167.51 282.59 167.35 282.4 167.2 282.22C166.9 281.87 166.6 281.54 166.28 281.21C165.66 280.55 164.99 279.91 164.29 279.32C164.13 279.18 163.96 279.04 163.8 278.91C163.7 278.83 163.61 278.75 163.51 278.68C163.5 278.67 163.49 278.67 163.48 278.65C163.52 278.68 163.53 278.7 163.48 278.65C163.4 278.59 163.45 278.63 163.48 278.65C163.44 278.62 163.38 278.58 163.37 278.57C163 278.29 162.62 278.01 162.23 277.75C161.43 277.21 160.61 276.72 159.76 276.26C159.32 276.03 158.88 275.81 158.44 275.6C158.23 275.51 158.01 275.41 157.8 275.31C157.77 275.3 157.58 275.22 157.54 275.2C157.56 275.21 157.58 275.22 157.6 275.23C157.54 275.2 157.53 275.2 157.54 275.2C157.44 275.16 157.33 275.12 157.22 275.07C155.22 274.26 153.13 273.67 151.01 273.24C150.46 273.13 149.9 273.03 149.34 272.95C149.21 272.93 149.09 272.91 148.96 272.89C148.92 272.89 148.78 272.86 148.72 272.86C148.74 272.86 148.75 272.86 148.77 272.86C148.69 272.85 148.69 272.85 148.72 272.86C148.45 272.82 148.17 272.79 147.9 272.76C146.84 272.65 145.78 272.58 144.71 272.56C143.69 272.55 142.67 272.58 141.65 272.66C141.16 272.71 140.68 272.75 140.19 272.82C140.25 272.81 140.28 272.81 140.16 272.82C140.17 272.82 140.18 272.82 140.19 272.82C140.14 272.83 140.05 272.84 140.01 272.85C139.9 272.86 139.78 272.88 139.67 272.9C139.41 272.94 139.16 272.98 138.9 273.03C137 273.38 135.13 273.92 133.34 274.62C133.15 274.7 132.96 274.78 132.78 274.85C132.81 274.84 132.81 274.84 132.72 274.88C132.74 274.87 132.76 274.86 132.78 274.85C132.72 274.88 132.58 274.94 132.55 274.95C132.43 275 132.31 275.05 132.2 275.11C131.76 275.3 131.33 275.51 130.9 275.73C130.05 276.16 129.21 276.63 128.39 277.14C127.58 277.65 126.77 278.2 126 278.78C125.91 278.85 125.81 278.91 125.72 278.98C125.69 279 125.6 279.07 125.56 279.1C125.57 279.09 125.59 279.08 125.6 279.07C125.53 279.12 125.53 279.12 125.56 279.1C125.37 279.25 125.18 279.4 124.99 279.56C124.6 279.87 124.22 280.19 123.85 280.51C122.33 281.84 120.9 283.27 119.57 284.79C118.11 286.45 117.03 287.83 115.79 289.61C113.23 293.27 111.04 297.18 109.11 301.21C108.09 303.35 107.21 305.38 106.37 307.47C105.48 309.68 104.66 311.92 103.89 314.18C102.34 318.73 101.01 323.35 99.86 328.02C98.73 332.58 97.77 337.17 96.96 341.79C96.57 343.98 96.21 346.18 95.89 348.39C95.81 348.92 95.74 349.45 95.66 349.99C95.63 350.24 95.59 350.48 95.56 350.73C95.53 350.96 95.55 350.79 95.56 350.75C95.56 350.81 95.55 350.88 95.54 350.95Z" fill="#180205" fill-opacity="1.000000" fill-rule="nonzero"/>
		<path id="Vector" d="M125.62 279.07C125.6 279.08 125.59 279.09 125.58 279.1C125.54 279.13 125.54 279.13 125.62 279.07Z" fill="#180205" fill-opacity="1.000000" fill-rule="nonzero"/>
		<path id="Vector" d="M140.2 272.82C140.19 272.82 140.17 272.82 140.16 272.82C140.28 272.8 140.26 272.81 140.2 272.82Z" fill="#180205" fill-opacity="1.000000" fill-rule="nonzero"/>
		<path id="Vector" d="M148.77 272.86C148.75 272.86 148.74 272.85 148.73 272.85C148.69 272.85 148.69 272.85 148.77 272.86Z" fill="#180205" fill-opacity="1.000000" fill-rule="nonzero"/>
		<path id="Vector" d="M268.68 477.91C251.75 477.29 238.21 470.22 236.36 468.37C234.52 466.52 232.98 464.67 232.67 453.6C232.36 442.52 232.67 434.82 232.67 434.82C243.13 436.05 244.36 429.28 249.6 423.74C254.83 418.2 261.81 417.45 262.83 417.28C265.91 416.76 274.83 431.43 283.76 440.05C292.68 448.67 304.99 449.28 304.99 458.21C305 470.83 285.61 478.53 268.68 477.91Z" fill="#F71F6A" fill-opacity="1.000000" fill-rule="nonzero"/>
		<path id="Vector" d="M268.68 477.91C251.75 477.29 238.21 470.22 236.36 468.37C234.55 466.55 233.04 464.74 232.69 454.21C253.29 456.58 251.03 467.2 272.68 468.37C288.38 469.21 299.54 462.02 304.96 457.47C304.98 457.71 305 457.96 305 458.21C305 470.83 285.61 478.53 268.68 477.91Z" fill="#FFFFFF" fill-opacity="1.000000" fill-rule="nonzero"/>
		<path id="Vector" d="M96.33 448.37C100.85 447.44 104.33 452.06 113.98 453.29C121.51 454.25 124.06 451.26 127.69 453.3C131.32 455.34 131.73 466.22 131.73 476.68C131.73 487.15 136.65 496.69 136.34 502.84C136.03 509 132.03 515.46 113.88 514.23C95.72 513 91.83 506.84 92.7 496.99C93.57 487.15 92.7 480.27 89.71 470.73C87.64 464.15 91.65 449.32 96.33 448.37Z" fill="#F71F6A" fill-opacity="1.000000" fill-rule="nonzero"/>
		<path id="Vector" d="M113.87 514.23C97.43 513.11 92.69 507.96 92.58 499.68C110.13 508.44 128.08 505.91 136.23 504C135.47 509.77 130.89 515.38 113.87 514.23Z" fill="#FFFFFF" fill-opacity="1.000000" fill-rule="nonzero"/>
		<path id="Vector" d="M105.31 453.15C103.72 452.48 102.21 451.69 100.78 450.75C100.27 450.41 100.05 449.75 100.37 449.2C100.67 448.7 101.4 448.46 101.91 448.8C106.64 451.9 112.28 453.42 117.93 453.15C119.49 453.07 121.04 452.85 122.56 452.49C123.16 452.36 123.79 452.68 123.95 453.28C124.11 453.86 123.76 454.53 123.16 454.67C117.24 456.06 110.92 455.52 105.31 453.15Z" fill="#180205" fill-opacity="1.000000" fill-rule="nonzero"/>
		<path id="Vector" d="M249.48 425.01C246.55 428.27 245.09 432.67 241.34 435.2C239.37 436.53 236.88 437.21 234.56 436.49C233.17 436.06 233.76 433.89 235.15 434.31C236.9 434.85 238.67 434.28 240.2 433.25C241.89 432.11 243.08 430.4 244.16 428.7C245.34 426.87 246.46 424.98 247.94 423.36C249.29 421.86 250.91 420.58 252.65 419.57C254.66 418.41 256.88 417.59 259.16 417.21C259.76 417.11 260.38 417.37 260.55 418C260.7 418.54 260.37 419.29 259.76 419.39C255.81 420.05 252.17 422.02 249.48 425.01Z" fill="#180205" fill-opacity="1.000000" fill-rule="nonzero"/>
		<path id="Vector" d="M60.97 71.35C60.87 68.73 58.27 66.64 55.7 66.97C55.4 67 55.14 66.68 55.14 66.4C55.14 66.07 55.4 65.87 55.7 65.84C58.89 65.43 61.98 68.18 62.1 71.35C62.13 72.08 61 72.08 60.97 71.35Z" fill="#180205" fill-opacity="1.000000" fill-rule="nonzero"/>
		<path id="Vector" d="M87.09 74.67C86 74.47 85.36 73.01 85.65 71.41C85.95 69.81 87.07 68.67 88.15 68.87C89.24 69.07 89.89 70.54 89.59 72.13C89.3 73.74 88.17 74.87 87.09 74.67Z" fill="#180205" fill-opacity="1.000000" fill-rule="nonzero"/>
		<path id="Vector" d="M87.2 73.36C87.2 73.78 87.55 74.12 87.97 74.12C88.39 74.12 88.74 73.78 88.74 73.36C88.74 72.93 88.39 72.59 87.97 72.59C87.55 72.59 87.2 72.93 87.2 73.36Z" fill="#FFFFFF" fill-opacity="1.000000" fill-rule="evenodd"/>
		<path id="Vector" d="M103.17 75.58C102.59 77.1 102.96 78.65 103.99 79.05C105.03 79.44 106.34 78.53 106.92 77.01C107.5 75.49 107.13 73.94 106.1 73.54C105.06 73.15 103.75 74.06 103.17 75.58Z" fill="#180205" fill-opacity="1.000000" fill-rule="evenodd"/>
		<path id="Vector" d="M104.98 78.65C104.56 78.57 104.29 78.17 104.36 77.75C104.44 77.34 104.84 77.06 105.26 77.14C105.67 77.21 105.95 77.61 105.87 78.03C105.8 78.45 105.4 78.73 104.98 78.65Z" fill="#FFFFFF" fill-opacity="1.000000" fill-rule="nonzero"/>
		<path id="Vector" d="M91.5 64.26C91.05 63.46 90.32 62.85 89.43 62.6C88.46 62.32 87.43 62.51 86.59 63.05C85.98 63.45 85.41 62.47 86.02 62.08C87.1 61.38 88.49 61.15 89.73 61.51C90.89 61.84 91.89 62.64 92.47 63.69C92.83 64.33 91.85 64.9 91.5 64.26Z" fill="#180205" fill-opacity="1.000000" fill-rule="nonzero"/>
		<path id="Vector" d="M110.32 70.18C109.87 69.38 109.14 68.76 108.25 68.51C107.28 68.23 106.25 68.43 105.4 68.97C104.79 69.37 104.23 68.39 104.83 68C105.92 67.29 107.3 67.07 108.55 67.42C109.71 67.76 110.71 68.56 111.29 69.61C111.65 70.24 110.67 70.81 110.32 70.18Z" fill="#180205" fill-opacity="1.000000" fill-rule="nonzero"/>
		<path id="Vector" d="M98.88 83.77C98.78 83.56 98.68 83.34 98.59 83.12C98.8 83.07 99.01 83.01 99.22 82.94C99.11 83.22 98.99 83.5 98.88 83.77Z" fill="#180205" fill-opacity="1.000000" fill-rule="nonzero"/>
		<path id="Vector" d="M99.52 84.03C98.34 84.43 97.1 84.51 95.88 84.31C95.16 84.19 95.47 83.11 96.18 83.22C96.99 83.36 97.8 83.31 98.59 83.12C98.69 83.34 98.78 83.56 98.89 83.77C99 83.5 99.11 83.22 99.22 82.94C99.02 83.01 98.81 83.07 98.59 83.12C97.63 80.91 97.17 78.49 97.31 76.07C97.35 75.35 98.48 75.35 98.43 76.07C98.3 78.53 98.77 80.99 99.86 83.2C100.03 83.54 99.88 83.91 99.52 84.03Z" fill="#180205" fill-opacity="1.000000" fill-rule="nonzero"/>
		<path id="Vector" d="M87.14 88.04C86.67 87.48 87.47 86.68 87.93 87.24C89.72 89.37 92.67 90.35 95.38 89.64C96.08 89.46 96.38 90.55 95.68 90.73C92.61 91.53 89.18 90.47 87.14 88.04Z" fill="#180205" fill-opacity="1.000000" fill-rule="nonzero"/>
		<path id="Vector" d="M72.43 99.98C78.94 106.75 89.7 107.05 89.7 107.05L90.01 114.53C74.48 112.13 72.43 99.98 72.43 99.98Z" fill="#180205" fill-opacity="1.000000" fill-rule="nonzero"/>
		<path id="Vector" d="M175.81 185.09C178.54 185.77 181.41 185.72 184.12 184.99C185.52 184.61 186.12 186.79 184.71 187.17C179.62 188.53 173.93 187.77 169.57 184.72C165.65 181.98 163.05 177.61 163.2 172.74C163.28 170.01 164.2 167.41 165.92 165.28C166.31 164.81 167.12 164.88 167.52 165.28C167.99 165.75 167.9 166.4 167.52 166.88C165.02 169.96 164.84 174.62 166.61 178.09C168.44 181.67 171.96 184.12 175.81 185.09Z" fill="#180205" fill-opacity="1.000000" fill-rule="nonzero"/>
	</g>
</svg>
