<svg width="24.000000" height="24.000000" viewBox="0 0 24 24" fill="none" xmlns="http://www.w3.org/2000/svg" xmlns:xlink="http://www.w3.org/1999/xlink">
	<desc>
			Created with Pixso.
	</desc>
	<defs>
		<clipPath id="clip1099_8550">
			<rect id="local_shipping" rx="-0.500000" width="23.000000" height="23.000000" transform="translate(0.500000 0.500000)" fill="white" fill-opacity="0"/>
		</clipPath>
	</defs>
	<rect id="local_shipping" rx="-0.500000" width="23.000000" height="23.000000" transform="translate(0.500000 0.500000)" fill="#FFFFFF" fill-opacity="0"/>
	<g clip-path="url(#clip1099_8550)">
		<path id="Vector" d="M20 8L17 8L17 4L3 4C1.9 4 1 4.9 1 6L1 17L3 17C3 18.66 4.33 20 6 20C7.66 20 9 18.66 9 17L15 17C15 18.66 16.33 20 18 20C19.66 20 21 18.66 21 17L23 17L23 12L20 8ZM19.5 9.5L21.46 12L17 12L17 9.5L19.5 9.5ZM6 18C5.45 18 5 17.54 5 17C5 16.45 5.45 16 6 16C6.54 16 7 16.45 7 17C7 17.54 6.54 18 6 18ZM8.21 15C7.66 14.39 6.88 14 6 14C5.11 14 4.33 14.39 3.78 15L3 15L3 6L15 6L15 15L8.21 15ZM18 18C17.45 18 17 17.54 17 17C17 16.45 17.45 16 18 16C18.54 16 19 16.45 19 17C19 17.54 18.54 18 18 18Z" fill="#FFFFFF" fill-opacity="1.000000" fill-rule="evenodd"/>
	</g>
</svg>
