<svg width="24.000000" height="24.000000" viewBox="0 0 24 24" fill="none" xmlns="http://www.w3.org/2000/svg" xmlns:xlink="http://www.w3.org/1999/xlink">
	<desc>
			Created with Pixso.
	</desc>
	<defs>
		<clipPath id="clip15_7006">
			<rect id="love 1" rx="-0.500000" width="23.000000" height="23.000000" transform="translate(0.500000 0.500000)" fill="white" fill-opacity="0"/>
		</clipPath>
	</defs>
	<rect id="love 1" rx="-0.500000" width="23.000000" height="23.000000" transform="translate(0.500000 0.500000)" fill="#FFFFFF" fill-opacity="0"/>
	<g clip-path="url(#clip15_7006)">
		<path id="Vector" d="M20.52 4.27C19.99 3.74 19.36 3.32 18.67 3.04C17.99 2.75 17.25 2.61 16.5 2.61C15.76 2.61 15.02 2.75 14.33 3.04C13.64 3.32 13.02 3.74 12.49 4.27L12 4.76L11.5 4.27C10.97 3.74 10.35 3.32 9.66 3.04C8.97 2.75 8.23 2.61 7.49 2.61C6.74 2.61 6 2.75 5.32 3.04C4.63 3.32 4 3.74 3.47 4.27C1.77 5.97 1.48 8.59 2.68 11.28C4.15 14.56 11.03 20.86 11.32 21.12C11.51 21.29 11.75 21.38 12 21.38C12.24 21.38 12.48 21.29 12.67 21.12C12.96 20.86 19.84 14.56 21.31 11.28C22.51 8.59 22.22 5.97 20.52 4.27ZM19.48 10.46C18.51 12.62 14.24 16.91 12 19.02C9.75 16.91 5.48 12.62 4.51 10.46C4.1 9.55 3.32 7.25 4.89 5.68C5.58 4.99 6.51 4.61 7.49 4.61C8.46 4.61 9.4 4.99 10.08 5.68L11.29 6.89C11.38 6.98 11.49 7.05 11.61 7.1C11.73 7.15 11.86 7.18 12 7.18C12.13 7.18 12.26 7.15 12.38 7.1C12.5 7.05 12.61 6.98 12.7 6.89L13.91 5.68C14.61 5.01 15.54 4.64 16.5 4.64C17.47 4.64 18.4 5.01 19.1 5.68C20.67 7.25 19.89 9.55 19.48 10.46Z" fill="#242424" fill-opacity="1.000000" fill-rule="nonzero"/>
	</g>
</svg>
