<svg width="165.000000" height="46.110352" viewBox="0 0 165 46.1104" fill="none" xmlns="http://www.w3.org/2000/svg" xmlns:xlink="http://www.w3.org/1999/xlink">
	<desc>
			Created with Pixso.
	</desc>
	<defs/>
	<path id="Барча турдаги китоблар" d="M145.06 37.36Q145.06 36.42 145.2 35.74C145.3 35.29 145.45 34.92 145.64 34.63Q145.88 34.27 146.21 34.05L146.21 34.05Q146.3 34 146.38 33.95C146.71 33.74 147.1 33.58 147.56 33.47C148.02 33.36 148.55 33.26 149.16 33.19L149.23 33.61C148.91 33.64 148.62 33.68 148.35 33.73C148.08 33.77 147.83 33.83 147.61 33.88C147.39 33.94 147.19 34 147.01 34.07C146.84 34.14 146.69 34.22 146.56 34.31C146.36 34.43 146.19 34.6 146.04 34.83C145.9 35.05 145.78 35.32 145.7 35.64C145.62 35.96 145.56 36.34 145.54 36.77L145.58 36.77Q145.62 36.69 145.67 36.61L145.67 36.61Q145.82 36.4 146.02 36.23Q146.04 36.21 146.06 36.19Q146.32 35.98 146.65 35.86Q147 35.71 147.43 35.71C147.85 35.71 148.2 35.8 148.48 35.98C148.77 36.15 148.98 36.41 149.13 36.75Q149.35 37.25 149.35 37.97Q149.35 38.71 149.11 39.27C148.95 39.64 148.72 39.93 148.4 40.13C148.08 40.33 147.69 40.43 147.22 40.43C146.83 40.43 146.5 40.36 146.23 40.2C145.96 40.04 145.73 39.82 145.56 39.55C145.39 39.27 145.26 38.94 145.18 38.57C145.1 38.19 145.06 37.79 145.06 37.36ZM60.74 40.34L60.74 33.66L64.47 33.66L64.47 34.08L61.21 34.08L61.21 36.59L62.46 36.59Q63.25 36.59 63.76 36.79C64.11 36.92 64.36 37.11 64.52 37.38Q64.77 37.79 64.77 38.42C64.77 39.04 64.59 39.52 64.23 39.85Q63.68 40.34 62.57 40.34L60.74 40.34ZM73.37 35.27C74.01 35.27 74.5 35.49 74.85 35.92C75.21 36.35 75.39 36.98 75.39 37.82C75.39 38.38 75.3 38.86 75.13 39.25C74.97 39.64 74.73 39.93 74.42 40.13C74.11 40.33 73.74 40.43 73.3 40.43C73.01 40.43 72.74 40.39 72.52 40.3C72.3 40.21 72.12 40.09 71.97 39.93Q71.77 39.72 71.65 39.46Q71.64 39.44 71.63 39.42L71.6 39.42C71.61 39.6 71.62 39.78 71.63 39.97C71.63 40.16 71.63 40.33 71.63 40.5L71.63 42.54L71.17 42.54L71.17 35.37L71.55 35.37L71.61 36.36L71.63 36.36Q71.76 36.08 71.98 35.83C72.13 35.66 72.32 35.53 72.55 35.43Q72.89 35.27 73.37 35.27ZM100.26 35.27Q100.92 35.27 101.38 35.58Q101.58 35.72 101.75 35.92C102.1 36.35 102.28 36.98 102.28 37.82C102.28 38.38 102.19 38.86 102.03 39.25Q101.81 39.75 101.42 40.05L101.42 40.05Q101.37 40.09 101.31 40.13C101 40.33 100.63 40.43 100.2 40.43C99.9 40.43 99.64 40.39 99.41 40.3C99.19 40.21 99.01 40.09 98.86 39.93Q98.66 39.72 98.54 39.46L98.54 39.46Q98.53 39.44 98.53 39.42L98.49 39.42C98.5 39.6 98.51 39.78 98.52 39.97C98.52 40.16 98.53 40.33 98.53 40.5L98.53 42.54L98.06 42.54L98.06 35.37L98.44 35.37L98.5 36.36L98.53 36.36C98.61 36.17 98.72 36 98.87 35.83C99.02 35.66 99.21 35.53 99.44 35.43C99.67 35.33 99.94 35.27 100.26 35.27ZM143.95 37.85C143.95 38.23 143.91 38.58 143.81 38.9C143.72 39.22 143.58 39.49 143.39 39.72C143.21 39.94 142.97 40.12 142.7 40.25C142.42 40.37 142.1 40.43 141.74 40.43C141.39 40.43 141.08 40.37 140.81 40.25C140.53 40.13 140.31 39.95 140.12 39.72C139.93 39.49 139.79 39.22 139.69 38.91Q139.54 38.43 139.54 37.85Q139.54 37.05 139.81 36.47C139.99 36.09 140.25 35.79 140.58 35.59C140.91 35.38 141.31 35.27 141.78 35.27C142.26 35.27 142.66 35.38 142.98 35.6Q143.12 35.69 143.23 35.8L143.23 35.8Q143.53 36.09 143.71 36.51Q143.95 37.09 143.95 37.85ZM162.98 35.27C163.62 35.27 164.11 35.49 164.46 35.92C164.82 36.35 165 36.98 165 37.82C165 38.38 164.91 38.86 164.74 39.25C164.58 39.64 164.34 39.93 164.03 40.13C163.72 40.33 163.35 40.43 162.91 40.43C162.62 40.43 162.36 40.39 162.13 40.3C161.91 40.21 161.73 40.09 161.58 39.93Q161.38 39.72 161.26 39.46Q161.25 39.44 161.25 39.42L161.21 39.42C161.22 39.6 161.23 39.78 161.24 39.97C161.24 40.16 161.25 40.33 161.25 40.5L161.25 42.54L160.78 42.54L160.78 35.37L161.16 35.37L161.22 36.36L161.25 36.36C161.33 36.17 161.44 36 161.59 35.83C161.74 35.66 161.93 35.53 162.16 35.43C162.39 35.33 162.66 35.27 162.98 35.27ZM67.94 35.28C68.48 35.28 68.89 35.42 69.16 35.7Q69.57 36.11 69.57 37.01L69.57 40.34L69.21 40.34L69.13 39.47L69.1 39.47C68.99 39.66 68.87 39.83 68.71 39.97C68.56 40.11 68.37 40.23 68.15 40.31C67.93 40.39 67.66 40.43 67.35 40.43C67.03 40.43 66.75 40.38 66.52 40.27C66.3 40.17 66.12 40.01 66 39.81Q65.81 39.5 65.81 39.06C65.81 38.57 66.02 38.19 66.43 37.94C66.83 37.68 67.42 37.53 68.19 37.5L69.11 37.45L69.11 37.09C69.11 36.58 69.01 36.22 68.81 36Q68.78 35.97 68.75 35.94Q68.45 35.68 67.92 35.68Q67.54 35.68 67.2 35.77Q67.19 35.77 67.18 35.78C66.94 35.84 66.7 35.93 66.46 36.06L66.31 35.67C66.55 35.56 66.8 35.47 67.08 35.39Q67.49 35.28 67.94 35.28ZM83.91 35.28C84.46 35.28 84.87 35.42 85.14 35.7Q85.55 36.11 85.55 37.01L85.55 40.34L85.19 40.34L85.11 39.47L85.08 39.47C84.97 39.66 84.84 39.83 84.69 39.97C84.54 40.11 84.35 40.23 84.13 40.31C83.91 40.39 83.64 40.43 83.32 40.43C83 40.43 82.73 40.38 82.5 40.27C82.28 40.17 82.1 40.01 81.98 39.81Q81.79 39.5 81.79 39.06C81.79 38.57 82 38.19 82.41 37.94C82.81 37.68 83.4 37.53 84.17 37.5L85.09 37.45L85.09 37.09C85.09 36.58 84.99 36.22 84.79 36C84.59 35.79 84.29 35.68 83.9 35.68C83.64 35.68 83.39 35.71 83.16 35.78C82.92 35.84 82.68 35.93 82.44 36.06L82.29 35.67C82.53 35.56 82.78 35.47 83.05 35.39C83.33 35.32 83.62 35.28 83.91 35.28ZM110.49 35.28C111.03 35.28 111.44 35.42 111.71 35.7C111.98 35.97 112.12 36.41 112.12 37.01L112.12 40.34L111.76 40.34L111.68 39.47L111.65 39.47C111.55 39.66 111.42 39.83 111.26 39.97C111.11 40.11 110.92 40.23 110.7 40.31C110.48 40.39 110.21 40.43 109.9 40.43C109.58 40.43 109.3 40.38 109.07 40.27C108.85 40.17 108.67 40.01 108.55 39.81C108.42 39.6 108.36 39.35 108.36 39.06C108.36 38.57 108.57 38.19 108.98 37.94C109.39 37.68 109.97 37.53 110.74 37.5L111.66 37.45L111.66 37.09C111.66 36.58 111.56 36.22 111.36 36Q111.33 35.97 111.3 35.94L111.3 35.94Q111 35.68 110.47 35.68C110.21 35.68 109.96 35.71 109.73 35.78C109.49 35.84 109.25 35.93 109.01 36.06L108.86 35.67C109.1 35.56 109.35 35.47 109.63 35.39C109.9 35.32 110.19 35.28 110.49 35.28ZM157.55 35.28C158.09 35.28 158.5 35.42 158.77 35.7C159.04 35.97 159.18 36.41 159.18 37.01L159.18 40.34L158.82 40.34L158.74 39.47L158.71 39.47C158.6 39.66 158.48 39.83 158.32 39.97C158.17 40.11 157.98 40.23 157.76 40.31C157.54 40.39 157.27 40.43 156.96 40.43C156.64 40.43 156.36 40.38 156.13 40.27C155.91 40.17 155.73 40.01 155.61 39.81C155.48 39.6 155.42 39.35 155.42 39.06C155.42 38.57 155.63 38.19 156.04 37.94C156.44 37.68 157.03 37.53 157.8 37.5L158.72 37.45L158.72 37.09C158.72 36.58 158.62 36.22 158.42 36C158.22 35.79 157.92 35.68 157.53 35.68Q157.15 35.68 156.81 35.77Q156.8 35.77 156.79 35.78C156.55 35.84 156.31 35.93 156.07 36.06L155.92 35.67C156.16 35.56 156.41 35.47 156.69 35.39C156.96 35.32 157.25 35.28 157.55 35.28ZM77.13 35.37L77.13 37.04C77.13 37.46 77.24 37.76 77.44 37.95C77.65 38.14 77.95 38.24 78.35 38.24C78.69 38.24 79 38.18 79.27 38.08C79.55 37.97 79.81 37.83 80.06 37.65L80.06 35.37L80.52 35.37L80.52 40.34L80.06 40.34L80.06 38.05C79.79 38.23 79.51 38.38 79.24 38.48Q78.83 38.64 78.28 38.64C77.75 38.64 77.35 38.5 77.08 38.23C76.81 37.96 76.67 37.58 76.67 37.09L76.67 35.37L77.13 35.37ZM92.75 35.78L91.06 35.78L91.06 40.34L90.61 40.34L90.61 35.78L88.94 35.78L88.94 35.37L92.75 35.37L92.75 35.78ZM92.94 35.37L93.43 35.37L94.63 38.53C94.71 38.71 94.77 38.88 94.83 39.04C94.88 39.2 94.93 39.34 94.98 39.47C95.02 39.6 95.05 39.72 95.08 39.83L95.11 39.83C95.16 39.68 95.22 39.5 95.29 39.29C95.37 39.06 95.46 38.82 95.55 38.54L96.75 35.37L97.24 35.37L94.97 41.27Q94.81 41.7 94.61 42C94.48 42.2 94.33 42.35 94.15 42.46C93.97 42.56 93.76 42.61 93.51 42.61C93.4 42.61 93.29 42.6 93.2 42.58C93.11 42.57 93.02 42.55 92.94 42.52L92.94 42.12C93.02 42.15 93.1 42.16 93.18 42.18C93.27 42.2 93.36 42.21 93.46 42.21C93.63 42.21 93.78 42.17 93.91 42.1C94.04 42.03 94.15 41.92 94.25 41.77C94.35 41.62 94.45 41.43 94.53 41.2L94.87 40.31L92.94 35.37ZM107.04 35.37L107.04 39.93L107.71 39.93L107.71 42.02L107.25 42.02L107.25 40.34L103.45 40.34L103.45 42.02L103 42.02L103 39.93L103.33 39.93C103.61 39.55 103.85 39.12 104.04 38.64C104.23 38.16 104.37 37.65 104.47 37.1C104.57 36.55 104.62 35.97 104.63 35.37L107.04 35.37ZM116.65 35.37L116.65 35.78L114.19 35.78L114.19 40.34L113.72 40.34L113.72 35.37L116.65 35.37ZM118.12 35.37L118.12 38.94C118.12 39.01 118.12 39.08 118.11 39.16C118.11 39.23 118.11 39.31 118.11 39.38C118.11 39.46 118.11 39.53 118.11 39.61C118.1 39.68 118.1 39.75 118.09 39.82L121.06 35.37L121.63 35.37L121.63 40.34L121.19 40.34L121.19 36.45C121.19 36.35 121.19 36.25 121.2 36.16C121.2 36.06 121.2 35.96 121.21 35.87L118.22 40.34L117.67 40.34L117.67 35.37L118.12 35.37ZM128.44 35.37L128.97 35.37L126.72 37.79L129.11 40.34L128.54 40.34L126.2 37.82L126.2 40.34L125.73 40.34L125.73 35.37L126.2 35.37L126.2 37.79L128.44 35.37ZM130.48 35.37L130.48 38.94Q130.48 39.05 130.47 39.16C130.47 39.23 130.47 39.31 130.47 39.38Q130.47 39.5 130.46 39.61C130.46 39.68 130.45 39.75 130.45 39.82L133.42 35.37L133.98 35.37L133.98 40.34L133.54 40.34L133.54 36.45C133.55 36.35 133.55 36.25 133.55 36.16C133.56 36.06 133.56 35.96 133.56 35.87L130.58 40.34L130.03 40.34L130.03 35.37L130.48 35.37ZM138.82 35.78L137.13 35.78L137.13 40.34L136.68 40.34L136.68 35.78L135.01 35.78L135.01 35.37L138.82 35.37L138.82 35.78ZM154.15 40.34L153.69 40.34L153.69 35.77L151.95 35.77C151.89 36.56 151.83 37.24 151.75 37.82C151.67 38.4 151.57 38.88 151.44 39.26Q151.25 39.83 150.97 40.11C150.79 40.29 150.56 40.39 150.28 40.39C150.2 40.39 150.13 40.38 150.07 40.37C150.01 40.37 149.96 40.36 149.93 40.35L149.93 39.97C149.96 39.98 150 39.99 150.05 39.99C150.1 40 150.15 40 150.22 40C150.37 40 150.51 39.94 150.64 39.83C150.76 39.71 150.87 39.53 150.96 39.29C151.06 39.04 151.14 38.74 151.21 38.38C151.28 38.01 151.34 37.57 151.39 37.07Q151.48 36.32 151.54 35.37L154.15 35.37L154.15 40.34ZM73.31 35.68C72.93 35.68 72.62 35.76 72.37 35.93C72.12 36.09 71.94 36.33 71.82 36.64Q71.64 37.11 71.63 37.79L71.63 37.86C71.63 38.35 71.69 38.75 71.81 39.08C71.94 39.4 72.12 39.63 72.36 39.79C72.6 39.95 72.9 40.03 73.26 40.03C73.62 40.03 73.92 39.94 74.16 39.77Q74.17 39.76 74.18 39.75Q74.53 39.49 74.72 39.02C74.85 38.69 74.91 38.29 74.91 37.82C74.91 37.12 74.78 36.59 74.51 36.23Q74.39 36.06 74.24 35.95Q73.87 35.68 73.31 35.68ZM100.2 35.68C99.83 35.68 99.51 35.76 99.26 35.93C99.02 36.09 98.83 36.33 98.71 36.64C98.59 36.95 98.53 37.33 98.53 37.79L98.53 37.86C98.53 38.35 98.59 38.75 98.7 39.08C98.83 39.4 99.01 39.63 99.25 39.79C99.49 39.95 99.79 40.03 100.15 40.03Q100.64 40.03 100.99 39.81Q101.02 39.79 101.05 39.77C101.29 39.6 101.48 39.35 101.61 39.02Q101.8 38.52 101.8 37.82C101.8 37.12 101.67 36.59 101.4 36.23C101.13 35.86 100.73 35.68 100.2 35.68ZM140.02 37.85C140.02 38.29 140.08 38.67 140.21 38.99C140.33 39.32 140.52 39.57 140.78 39.76C141.03 39.94 141.35 40.03 141.74 40.03C142.14 40.03 142.47 39.94 142.73 39.76C142.98 39.57 143.17 39.32 143.29 38.99C143.42 38.66 143.48 38.28 143.48 37.85C143.48 37.43 143.42 37.06 143.3 36.73C143.19 36.41 143 36.15 142.75 35.97Q142.38 35.68 141.78 35.68C141.2 35.68 140.76 35.87 140.46 36.26C140.17 36.64 140.02 37.17 140.02 37.85ZM162.92 35.68C162.54 35.68 162.23 35.76 161.98 35.93C161.73 36.09 161.55 36.33 161.43 36.64C161.31 36.95 161.25 37.33 161.25 37.79L161.25 37.86C161.25 38.35 161.3 38.75 161.42 39.08C161.55 39.4 161.73 39.63 161.97 39.79Q162.33 40.03 162.87 40.03C163.23 40.03 163.53 39.94 163.77 39.77C164.01 39.6 164.2 39.35 164.33 39.02Q164.52 38.52 164.52 37.82Q164.52 36.77 164.12 36.23C163.85 35.86 163.45 35.68 162.92 35.68ZM106.58 35.76L105.05 35.76C105.02 36.31 104.96 36.83 104.87 37.33Q104.72 38.07 104.46 38.73C104.29 39.17 104.08 39.57 103.84 39.93L106.58 39.93L106.58 35.76ZM147.25 40.03C147.62 40.03 147.92 39.95 148.16 39.79C148.4 39.62 148.58 39.39 148.69 39.09C148.81 38.78 148.87 38.42 148.87 38C148.87 37.39 148.74 36.92 148.49 36.6C148.23 36.28 147.86 36.12 147.37 36.12C147.09 36.12 146.83 36.17 146.6 36.28C146.37 36.38 146.16 36.52 145.98 36.71C145.81 36.89 145.65 37.09 145.53 37.33C145.53 37.67 145.55 38 145.6 38.32C145.66 38.64 145.75 38.93 145.87 39.19C146 39.45 146.18 39.65 146.4 39.81C146.63 39.96 146.91 40.03 147.25 40.03ZM61.21 39.93L62.5 39.93Q63.43 39.93 63.86 39.56Q63.89 39.53 63.93 39.49L63.93 39.49Q64.29 39.13 64.29 38.42Q64.29 37.87 64.07 37.57C63.93 37.36 63.71 37.22 63.43 37.14Q63.01 37.01 62.39 37.01L61.21 37.01L61.21 39.93ZM69.11 37.81L68.24 37.85C67.61 37.88 67.13 37.99 66.8 38.19Q66.56 38.33 66.44 38.54Q66.3 38.76 66.3 39.07C66.3 39.38 66.4 39.62 66.6 39.79Q66.89 40.04 67.42 40.04C67.96 40.04 68.38 39.88 68.67 39.57C68.96 39.26 69.1 38.84 69.11 38.3L69.11 37.81ZM85.09 37.81L84.22 37.85C83.59 37.88 83.1 37.99 82.78 38.19Q82.54 38.33 82.42 38.54Q82.28 38.76 82.28 39.07C82.28 39.38 82.38 39.62 82.57 39.79C82.77 39.96 83.05 40.04 83.4 40.04C83.94 40.04 84.36 39.88 84.65 39.57C84.94 39.26 85.08 38.84 85.09 38.3L85.09 37.81ZM111.66 37.81L110.79 37.85C110.16 37.88 109.68 37.99 109.35 38.19C109.02 38.38 108.85 38.68 108.85 39.07C108.85 39.38 108.95 39.62 109.15 39.79C109.34 39.96 109.62 40.04 109.97 40.04C110.51 40.04 110.93 39.88 111.22 39.57C111.51 39.26 111.65 38.84 111.66 38.3L111.66 37.81ZM158.72 37.81L157.85 37.85C157.22 37.88 156.74 37.99 156.41 38.19C156.08 38.38 155.91 38.68 155.91 39.07C155.91 39.38 156.01 39.62 156.21 39.79C156.4 39.96 156.68 40.04 157.03 40.04C157.57 40.04 157.99 39.88 158.28 39.57Q158.32 39.53 158.36 39.48Q158.71 39.03 158.72 38.3L158.72 37.81Z" fill="#11142D" fill-opacity="1.000000" fill-rule="evenodd"/>
	<path id="Liber" d="M79.15 6.48C79.72 6.48 80.22 6.61 80.63 6.88Q80.71 6.93 80.78 7Q81.25 7.42 81.25 8.37Q81.25 9.3 80.79 9.74L80.78 9.74Q80.71 9.81 80.63 9.86C80.22 10.13 79.72 10.27 79.15 10.27C78.57 10.27 78.07 10.13 77.65 9.86Q77.58 9.81 77.52 9.75L77.52 9.75L77.52 9.75L77.52 9.75Q77.05 9.32 77.05 8.37Q77.05 7.4 77.53 6.98L77.53 6.98Q77.59 6.93 77.65 6.88C78.07 6.61 78.57 6.48 79.15 6.48ZM91.34 11.06L91.34 6.48L87.47 6.48L87.47 26.19L90.42 26.19L91.07 24.63L91.34 24.63C91.71 25.09 92.19 25.51 92.79 25.88C93.39 26.25 94.21 26.44 95.25 26.44C96.33 26.44 97.28 26.16 98.1 25.62C98.92 25.06 99.56 24.24 100.01 23.15Q100.7 21.5 100.7 19.08C100.7 16.68 100.2 14.86 99.21 13.62C98.23 12.38 96.94 11.76 95.35 11.76C94.33 11.76 93.5 11.97 92.86 12.38C92.21 12.79 91.71 13.28 91.34 13.86L91.18 13.86C91.23 13.58 91.26 13.17 91.29 12.65Q91.34 11.86 91.34 11.06ZM60.52 26.19L60.52 7.67L64.44 7.67L64.44 22.94L71.95 22.94L71.95 26.19L60.52 26.19ZM112.06 11.76C113.37 11.76 114.5 12.01 115.44 12.52C116.39 13.02 117.12 13.74 117.63 14.7C118.15 15.65 118.4 16.82 118.4 18.19L118.4 20.07L109.27 20.07C109.32 21.16 109.64 22.01 110.25 22.64C110.87 23.26 111.72 23.56 112.81 23.56C113.71 23.56 114.54 23.47 115.29 23.29C116.04 23.1 116.81 22.82 117.61 22.45L117.61 25.44C116.91 25.78 116.17 26.04 115.4 26.2C114.64 26.36 113.72 26.44 112.63 26.44C111.21 26.44 109.95 26.18 108.86 25.65C107.77 25.13 106.91 24.33 106.28 23.26C105.67 22.19 105.36 20.84 105.36 19.21Q105.36 16.73 106.2 15.08C106.76 13.97 107.55 13.15 108.55 12.6Q110.06 11.76 112.06 11.76ZM132.45 11.8C132.2 11.77 131.98 11.76 131.78 11.76Q131.05 11.76 130.39 11.99Q130.21 12.05 130.03 12.13C129.5 12.36 129.03 12.68 128.6 13.09C128.19 13.49 127.84 13.93 127.57 14.41L127.38 14.41L126.81 12.03L123.88 12.03L123.88 26.19L127.74 26.19L127.74 18.98C127.74 18.31 127.85 17.75 128.06 17.29Q128.36 16.66 128.86 16.25Q128.9 16.21 128.95 16.18C129.32 15.89 129.74 15.69 130.2 15.56C130.67 15.43 131.16 15.37 131.66 15.37C131.83 15.37 132.02 15.38 132.25 15.41C132.49 15.42 132.67 15.45 132.8 15.5L133.09 11.87C132.93 11.84 132.72 11.82 132.45 11.8ZM81.07 12.03L81.07 26.19L77.21 26.19L77.21 12.03L81.07 12.03ZM112.09 14.51C111.33 14.51 110.71 14.75 110.21 15.23C109.72 15.71 109.44 16.47 109.36 17.5L114.78 17.5C114.77 16.92 114.67 16.41 114.47 15.97C114.27 15.52 113.98 15.16 113.58 14.9Q113 14.51 112.09 14.51ZM92.5 15.27C92.9 14.99 93.43 14.85 94.11 14.85Q94.68 14.85 95.14 15.08Q95.67 15.34 96.05 15.9C96.52 16.6 96.76 17.65 96.76 19.03C96.76 20.41 96.52 21.47 96.05 22.21C95.58 22.94 94.95 23.31 94.16 23.31Q92.98 23.31 92.34 22.72L92.34 22.72Q92.1 22.51 91.94 22.22C91.54 21.49 91.34 20.43 91.34 19.06L91.34 18.64Q91.36 17.36 91.63 16.52Q91.89 15.73 92.44 15.31Q92.47 15.29 92.5 15.27Z" fill="#11142D" fill-opacity="1.000000" fill-rule="evenodd"/>
	<path id="Rectangle 8" d="M0 10.08C0 4.51 4.51 0 10.08 0L36.02 0C41.59 0 46.11 4.51 46.11 10.08L46.11 36.02C46.11 41.59 41.59 46.11 36.02 46.11L10.08 46.11C4.51 46.11 0 41.59 0 36.02L0 10.08Z" fill="#3F51B5" fill-opacity="1.000000" fill-rule="nonzero"/>
	<path id="Subtract" d="M37.3114 13.7617L35.0581 13.7617L35.0581 10.811C35.0581 10.5049 34.7975 10.2573 34.4749 10.2573C33.5032 10.2573 32.6102 10.3423 31.7751 10.481L31.7624 10.4761L31.7222 10.4902C29.8737 10.8047 28.348 11.415 27.105 12.1587C27.0962 12.1641 27.0869 12.1689 27.0782 12.1743C25.1608 13.3271 23.9077 14.7803 23.158 15.8931C23.0164 16.0371 22.8865 16.1787 22.7706 16.314C21.8536 15.2422 20.1182 13.7617 17.5215 13.7617L8.2309 13.7617C7.7478 13.7617 7.35614 14.1328 7.35614 14.5908L7.35614 31.314C7.35614 31.7715 7.7478 32.144 8.2309 32.144L17.4592 32.144C19.9632 32.144 22.0201 34.9321 22.0497 34.9722C22.0521 34.9756 22.056 34.9775 22.058 34.981C22.0937 35.0283 22.1342 35.0708 22.1786 35.1104C22.1912 35.1216 22.2053 35.1313 22.2186 35.1421C22.2572 35.1719 22.2979 35.1992 22.3422 35.2231C22.3532 35.228 22.3636 35.2363 22.3754 35.2417C22.4184 35.2622 22.4636 35.2803 22.5116 35.2944C22.5212 35.2974 22.5312 35.2988 22.5407 35.3013C22.5578 35.3057 22.5746 35.3081 22.591 35.312C22.6465 35.3232 22.7026 35.3301 22.7589 35.3311C22.7626 35.3311 22.7662 35.3325 22.7706 35.3325C22.8344 35.3325 22.899 35.3237 22.9625 35.3101C22.972 35.3076 22.9818 35.3066 22.9913 35.3037C23.004 35.3013 23.0164 35.2998 23.0291 35.2959C23.0787 35.2812 23.1271 35.2612 23.1718 35.2393C23.1757 35.2368 23.1793 35.2349 23.1832 35.2334C23.2362 35.2056 23.2855 35.1738 23.3304 35.1372C23.3399 35.1294 23.3494 35.1221 23.3594 35.1147C23.406 35.0737 23.4481 35.0288 23.4844 34.98C23.4865 34.9771 23.4895 34.9746 23.4916 34.9722C23.5126 34.9438 25.5731 32.144 28.0825 32.144L37.3114 32.144C37.7945 32.144 38.1853 31.7715 38.1853 31.314L38.1853 14.5908C38.1853 14.1328 37.7945 13.7617 37.3114 13.7617ZM36.437 30.4839L28.0825 30.4839C27.7407 30.4839 27.409 30.5176 27.0878 30.5781C28.893 29.2349 31.3481 28.0874 34.4749 28.0874C34.7975 28.0874 35.0581 27.8394 35.0581 27.5337L35.0581 15.4214L36.437 15.4214L36.437 30.4839ZM12.277 20.1523C13.0337 19.4126 14.0599 18.9971 15.13 18.9971C16.2001 18.9971 17.2263 19.4126 17.983 20.1523C18.7396 20.8921 19.1647 21.895 19.1647 22.9409L17.6517 22.9409C17.3842 22.9409 17.1276 23.0449 16.9384 23.2295C16.7493 23.4146 16.643 23.6655 16.643 23.9268L16.643 26.3916C16.643 26.6533 16.7493 26.9038 16.9384 27.0889C17.1276 27.2734 17.3842 27.3774 17.6517 27.3774L19.1647 27.3774C19.4322 27.3774 19.6887 27.2734 19.8779 27.0889C20.0671 26.9038 20.1733 26.6533 20.1733 26.3916L20.1733 22.9409C20.1733 20.2183 17.9155 18.0112 15.13 18.0112C12.3446 18.0112 10.0867 20.2183 10.0867 22.9409L10.0867 26.3916C10.0867 26.6533 10.1929 26.9038 10.3821 27.0889C10.5713 27.2734 10.8278 27.3774 11.0953 27.3774L12.6083 27.3774C12.8759 27.3774 13.1324 27.2734 13.3216 27.0889C13.5107 26.9038 13.617 26.6533 13.617 26.3916L13.617 23.9268C13.617 23.6655 13.5107 23.4146 13.3216 23.2295C13.1324 23.0449 12.8759 22.9409 12.6083 22.9409L11.0953 22.9409C11.0953 21.895 11.5204 20.8921 12.277 20.1523ZM11.0953 26.3916L11.0953 23.9268L12.6083 23.9268L12.6083 26.3916L11.0953 26.3916ZM17.6517 26.3916L17.6517 23.9268L19.1647 23.9268L19.1647 26.3916L17.6517 26.3916ZM28.6235 28.3013L28.6277 28.2998C28.6256 28.3013 28.6233 28.3018 28.6212 28.3032L28.6235 28.3013Z" clip-rule="evenodd" fill="#FFFFFF" fill-opacity="1.000000" fill-rule="evenodd"/>
</svg>
