<svg width="18.000000" height="20.000000" viewBox="0 0 18 20" fill="none" xmlns="http://www.w3.org/2000/svg" xmlns:xlink="http://www.w3.org/1999/xlink">
	<desc>
			Created with Pixso.
	</desc>
	<defs/>
	<path id="Vector" d="M0 16.5L0 3C0 2.2 0.31 1.44 0.87 0.87C1.44 0.31 2.2 0 3 0L17 0C17.26 0 17.51 0.1 17.7 0.29C17.89 0.48 18 0.73 18 1L18 19C18 19.26 17.89 19.51 17.7 19.7C17.51 19.89 17.26 20 17 20L3.5 20C2.57 20 1.68 19.63 1.02 18.97C0.36 18.31 0 17.42 0 16.5ZM16 18L16 15L3.5 15C3.1 15 2.72 15.15 2.43 15.43C2.15 15.72 2 16.1 2 16.5C2 16.89 2.15 17.27 2.43 17.56C2.72 17.84 3.1 18 3.5 18L16 18ZM7 2L3 2C2.73 2 2.48 2.1 2.29 2.29C2.1 2.48 2 2.73 2 3L2 13.33C2.46 13.11 2.98 12.99 3.5 13L16 13L16 2L14 2L14 10L10.5 8L7 10L7 2Z" fill="#242424" fill-opacity="1.000000" fill-rule="nonzero"/>
</svg>
