<svg width="60.000000" height="25.000000" viewBox="0 0 60 25" fill="none" xmlns="http://www.w3.org/2000/svg" xmlns:xlink="http://www.w3.org/1999/xlink">
	<desc>
			Created with Pixso.
	</desc>
	<defs>
		<clipPath id="clip1028_3221">
			<rect id="star (1) 4" rx="-0.500000" width="23.000000" height="23.000000" transform="translate(0.500000 1.500000)" fill="white" fill-opacity="0"/>
		</clipPath>
	</defs>
	<rect id="star (1) 4" rx="-0.500000" width="23.000000" height="23.000000" transform="translate(0.500000 1.500000)" fill="#FFFFFF" fill-opacity="0"/>
	<g clip-path="url(#clip1028_3221)">
		<path id="Vector" d="M21.39 12.6C21.66 12.31 21.85 11.96 21.94 11.58C22.02 11.2 22 10.8 21.88 10.42C21.76 10.05 21.53 9.72 21.23 9.47C20.94 9.21 20.57 9.05 20.19 9L15.9 8.34C15.88 8.33 15.86 8.32 15.84 8.31C15.83 8.29 15.81 8.27 15.81 8.26L13.93 4.26C13.76 3.88 13.49 3.56 13.15 3.34C12.8 3.11 12.4 3 12 3C11.59 2.99 11.19 3.11 10.85 3.33C10.51 3.55 10.24 3.86 10.08 4.22L8.2 8.22C8.18 8.24 8.17 8.26 8.15 8.28C8.14 8.29 8.12 8.3 8.09 8.31L3.82 9C3.43 9.05 3.06 9.22 2.76 9.47C2.46 9.72 2.24 10.05 2.11 10.42C1.99 10.8 1.97 11.2 2.06 11.58C2.15 11.96 2.34 12.31 2.62 12.6L5.77 15.85C5.78 15.87 5.79 15.89 5.79 15.91C5.79 15.93 5.78 15.95 5.77 15.98L5.03 20.52C4.97 20.91 5.01 21.32 5.16 21.69C5.32 22.06 5.57 22.38 5.9 22.61C6.23 22.84 6.62 22.98 7.02 23C7.42 23.02 7.82 22.92 8.16 22.73L11.9 20.65C11.91 20.65 11.93 20.64 11.96 20.64C11.98 20.64 12 20.65 12.02 20.65L15.75 22.73C16.1 22.92 16.49 23.01 16.89 22.99C17.29 22.96 17.68 22.83 18 22.6C18.33 22.37 18.58 22.05 18.74 21.68C18.89 21.31 18.94 20.91 18.87 20.52L18.19 16C18.17 15.98 18.17 15.96 18.17 15.93C18.17 15.91 18.17 15.89 18.19 15.88L21.39 12.6Z" fill="#FF7F4D" fill-opacity="1.000000" fill-rule="nonzero"/>
	</g>
	<path id="4.7" d="M42.44 16.33L43.99 16.33L43.99 14.22L42.44 14.22L42.44 6.15L39.94 6.15L34.3 14.44L34.3 16.33L39.79 16.33L39.79 19L42.44 19L42.44 16.33ZM56.24 8.43L51.41 19L54.26 19L59.12 7.85L59.12 6.15L49.9 6.15L49.9 8.43L56.24 8.43ZM39.79 12.04L39.79 14.22L36.69 14.22L39.05 10.66Q39.29 10.29 39.48 9.96Q39.66 9.62 39.83 9.26L39.9 9.26L39.87 9.72Q39.85 10.05 39.83 10.47Q39.81 10.89 39.8 11.31Q39.79 11.74 39.79 12.04ZM45.69 16.64Q45.32 16.99 45.32 17.74Q45.32 18.43 45.66 18.78Q45.71 18.84 45.77 18.88Q45.88 18.96 46 19.03Q46.37 19.23 46.86 19.23Q47.3 19.23 47.65 19.06Q47.8 18.99 47.94 18.88Q48 18.84 48.05 18.78Q48.39 18.43 48.39 17.74Q48.39 16.99 48.02 16.64Q47.98 16.61 47.94 16.58Q47.83 16.5 47.71 16.44Q47.34 16.24 46.86 16.24Q46.33 16.24 45.93 16.47Q45.85 16.52 45.77 16.58Q45.73 16.61 45.69 16.64Z" fill="#FF7F4D" fill-opacity="1.000000" fill-rule="evenodd"/>
</svg>
