<svg width="24.000000" height="24.000000" viewBox="0 0 24 24" fill="none" xmlns="http://www.w3.org/2000/svg" xmlns:xlink="http://www.w3.org/1999/xlink">
	<desc>
			Created with Pixso.
	</desc>
	<defs>
		<clipPath id="clip4_7335">
			<rect id="menu 1" rx="-0.500000" width="23.000000" height="23.000000" transform="translate(0.500000 0.500000)" fill="white" fill-opacity="0"/>
		</clipPath>
	</defs>
	<rect id="menu 1" rx="-0.500000" width="23.000000" height="23.000000" transform="translate(0.500000 0.500000)" fill="#FFFFFF" fill-opacity="0"/>
	<g clip-path="url(#clip4_7335)">
		<path id="Vector" d="M3 11L10 11C10.26 11 10.51 10.89 10.7 10.7C10.89 10.51 11 10.26 11 10L11 3C11 2.73 10.89 2.48 10.7 2.29C10.51 2.1 10.26 2 10 2L3 2C2.73 2 2.48 2.1 2.29 2.29C2.1 2.48 2 2.73 2 3L2 10C2 10.26 2.1 10.51 2.29 10.7C2.48 10.89 2.73 11 3 11ZM4 4L9 4L9 9L4 9L4 4Z" fill="#3F51B5" fill-opacity="1.000000" fill-rule="nonzero"/>
		<path id="Vector" d="M14 11L21 11C21.26 11 21.51 10.89 21.7 10.7C21.89 10.51 22 10.26 22 10L22 3C22 2.73 21.89 2.48 21.7 2.29C21.51 2.1 21.26 2 21 2L14 2C13.73 2 13.48 2.1 13.29 2.29C13.1 2.48 13 2.73 13 3L13 10C13 10.26 13.1 10.51 13.29 10.7C13.48 10.89 13.73 11 14 11ZM15 4L20 4L20 9L15 9L15 4Z" fill="#3F51B5" fill-opacity="1.000000" fill-rule="nonzero"/>
		<path id="Vector" d="M3 22L10 22C10.26 22 10.51 21.89 10.7 21.7C10.89 21.51 11 21.26 11 21L11 14C11 13.73 10.89 13.48 10.7 13.29C10.51 13.1 10.26 13 10 13L3 13C2.73 13 2.48 13.1 2.29 13.29C2.1 13.48 2 13.73 2 14L2 21C2 21.26 2.1 21.51 2.29 21.7C2.48 21.89 2.73 22 3 22ZM4 15L9 15L9 20L4 20L4 15Z" fill="#3F51B5" fill-opacity="1.000000" fill-rule="nonzero"/>
		<path id="Vector" d="M14 22L21 22C21.26 22 21.51 21.89 21.7 21.7C21.89 21.51 22 21.26 22 21L22 14C22 13.73 21.89 13.48 21.7 13.29C21.51 13.1 21.26 13 21 13L14 13C13.73 13 13.48 13.1 13.29 13.29C13.1 13.48 13 13.73 13 14L13 21C13 21.26 13.1 21.51 13.29 21.7C13.48 21.89 13.73 22 14 22ZM15 15L20 15L20 20L15 20L15 15Z" fill="#3F51B5" fill-opacity="1.000000" fill-rule="nonzero"/>
	</g>
</svg>

