<svg width="20.047279" height="20.054199" viewBox="0 0 20.0473 20.0542" fill="currentcolor" xmlns="http://www.w3.org/2000/svg" xmlns:xlink="http://www.w3.org/1999/xlink">
	<desc>
			Created with Pixso.
	</desc>
	<defs/>
	<path id="circle2017" d="M8.99 0C4.03 0 0 4.03 0 8.99C0 13.95 4.03 18 8.99 18C11.11 18 13.06 17.26 14.6 16.02L18.35 19.77C18.54 19.95 18.79 20.05 19.05 20.05C19.31 20.05 19.56 19.94 19.75 19.76C19.93 19.57 20.04 19.32 20.04 19.06C20.05 18.8 19.95 18.54 19.76 18.35L16.02 14.61C17.25 13.06 17.99 11.11 17.99 8.99C17.99 4.03 13.95 0 8.99 0ZM8.99 2C12.87 2 15.99 5.12 15.99 8.99C15.99 12.87 12.87 16 8.99 16C5.12 16 2 12.87 2 8.99C2 5.12 5.12 2 8.99 2Z" fill="#3F51B5" fill-opacity="1.000000" fill-rule="nonzero"/>
</svg>
