<svg width="152.000000" height="24.000000" viewBox="0 0 152 24" fill="none" xmlns="http://www.w3.org/2000/svg" xmlns:xlink="http://www.w3.org/1999/xlink">
	<desc>
			Created with Pixso.
	</desc>
	<defs>
		<clipPath id="clip1099_8534">
			<rect id="star (1) 1" rx="-0.500000" width="23.000000" height="23.000000" transform="translate(0.500000 0.500000)" fill="white" fill-opacity="0"/>
		</clipPath>
		<clipPath id="clip1099_8536">
			<rect id="star (1) 2" rx="-0.500000" width="23.000000" height="23.000000" transform="translate(32.500000 0.500000)" fill="white" fill-opacity="0"/>
		</clipPath>
		<clipPath id="clip1099_8538">
			<rect id="star (1) 3" rx="-0.500000" width="23.000000" height="23.000000" transform="translate(64.500000 0.500000)" fill="white" fill-opacity="0"/>
		</clipPath>
		<clipPath id="clip1099_8540">
			<rect id="star (1) 4" rx="-0.500000" width="23.000000" height="23.000000" transform="translate(96.500000 0.500000)" fill="white" fill-opacity="0"/>
		</clipPath>
		<clipPath id="clip1099_8542">
			<rect id="star (1) 5" rx="-0.500000" width="23.000000" height="23.000000" transform="translate(128.500000 0.500000)" fill="white" fill-opacity="0"/>
		</clipPath>
	</defs>
	<rect id="star (1) 1" rx="-0.500000" width="23.000000" height="23.000000" transform="translate(0.500000 0.500000)" fill="#FFFFFF" fill-opacity="0"/>
	<g clip-path="url(#clip1099_8534)">
		<path id="Vector" d="M21.39 11.6C21.66 11.31 21.85 10.96 21.94 10.58C22.02 10.2 22 9.8 21.88 9.43C21.76 9.05 21.53 8.72 21.24 8.47C20.94 8.22 20.57 8.05 20.19 8L15.9 7.33C15.88 7.33 15.86 7.32 15.84 7.31C15.83 7.29 15.81 7.27 15.81 7.26L13.93 3.26C13.76 2.88 13.49 2.56 13.15 2.34C12.8 2.11 12.4 2 12 2C11.59 1.99 11.19 2.11 10.85 2.33C10.51 2.54 10.24 2.86 10.08 3.22L8.2 7.22C8.19 7.24 8.17 7.26 8.15 7.28C8.14 7.29 8.12 7.3 8.1 7.31L3.82 8C3.43 8.05 3.06 8.22 2.76 8.47C2.46 8.72 2.24 9.05 2.12 9.43C1.99 9.8 1.97 10.2 2.06 10.58C2.15 10.96 2.34 11.31 2.62 11.6L5.78 14.85C5.78 14.87 5.79 14.89 5.79 14.91C5.79 14.93 5.78 14.95 5.78 14.98L5.04 19.52C4.97 19.91 5.01 20.32 5.16 20.69C5.32 21.06 5.57 21.38 5.9 21.61C6.23 21.84 6.62 21.98 7.02 22C7.42 22.02 7.82 21.92 8.17 21.73L11.9 19.66C11.91 19.65 11.93 19.64 11.96 19.64C11.98 19.64 12 19.65 12.02 19.66L15.75 21.73C16.1 21.92 16.49 22.01 16.89 21.99C17.29 21.96 17.68 21.83 18 21.6C18.33 21.37 18.58 21.05 18.74 20.68C18.89 20.31 18.94 19.91 18.88 19.52L18.19 15C18.17 14.98 18.17 14.96 18.17 14.94C18.17 14.91 18.17 14.89 18.19 14.88L21.39 11.6Z" fill="#FF7F4D" fill-opacity="1.000000" fill-rule="nonzero"/>
	</g>
	<rect id="star (1) 2" rx="-0.500000" width="23.000000" height="23.000000" transform="translate(32.500000 0.500000)" fill="#FFFFFF" fill-opacity="0"/>
	<g clip-path="url(#clip1099_8536)">
		<path id="Vector" d="M53.39 11.6C53.66 11.31 53.85 10.96 53.94 10.58C54.02 10.2 54 9.8 53.88 9.43C53.76 9.05 53.53 8.72 53.24 8.47C52.94 8.22 52.57 8.05 52.19 8L47.9 7.33C47.88 7.33 47.86 7.32 47.84 7.31C47.83 7.29 47.81 7.27 47.81 7.26L45.93 3.26C45.76 2.88 45.49 2.56 45.15 2.34C44.8 2.11 44.4 2 44 2C43.59 1.99 43.19 2.11 42.85 2.33C42.51 2.54 42.24 2.86 42.08 3.22L40.2 7.22C40.19 7.24 40.17 7.26 40.15 7.28C40.14 7.29 40.12 7.3 40.1 7.31L35.82 8C35.43 8.05 35.06 8.22 34.76 8.47C34.46 8.72 34.24 9.05 34.12 9.43C33.99 9.8 33.97 10.2 34.06 10.58C34.15 10.96 34.34 11.31 34.62 11.6L37.78 14.85C37.78 14.87 37.79 14.89 37.79 14.91C37.79 14.93 37.78 14.95 37.78 14.98L37.04 19.52C36.97 19.91 37.01 20.32 37.16 20.69C37.32 21.06 37.57 21.38 37.9 21.61C38.23 21.84 38.62 21.98 39.02 22C39.42 22.02 39.82 21.92 40.17 21.73L43.9 19.66C43.91 19.65 43.93 19.64 43.96 19.64C43.98 19.64 44 19.65 44.02 19.66L47.75 21.73C48.1 21.92 48.49 22.01 48.89 21.99C49.29 21.96 49.68 21.83 50 21.6C50.33 21.37 50.58 21.05 50.74 20.68C50.89 20.31 50.94 19.91 50.88 19.52L50.19 15C50.17 14.98 50.17 14.96 50.17 14.94C50.17 14.91 50.17 14.89 50.19 14.88L53.39 11.6Z" fill="#FF7F4D" fill-opacity="1.000000" fill-rule="nonzero"/>
	</g>
	<rect id="star (1) 3" rx="-0.500000" width="23.000000" height="23.000000" transform="translate(64.500000 0.500000)" fill="#FFFFFF" fill-opacity="0"/>
	<g clip-path="url(#clip1099_8538)">
		<path id="Vector" d="M85.39 11.6C85.66 11.31 85.85 10.96 85.94 10.58C86.02 10.2 86 9.8 85.88 9.43C85.76 9.05 85.53 8.72 85.24 8.47C84.94 8.22 84.57 8.05 84.19 8L79.9 7.33C79.88 7.33 79.86 7.32 79.84 7.31C79.83 7.29 79.81 7.27 79.81 7.26L77.93 3.26C77.76 2.88 77.49 2.56 77.15 2.34C76.8 2.11 76.4 2 76 2C75.59 1.99 75.19 2.11 74.85 2.33C74.51 2.54 74.24 2.86 74.08 3.22L72.2 7.22C72.19 7.24 72.17 7.26 72.15 7.28C72.14 7.29 72.12 7.3 72.1 7.31L67.82 8C67.43 8.05 67.06 8.22 66.76 8.47C66.46 8.72 66.24 9.05 66.12 9.43C65.99 9.8 65.97 10.2 66.06 10.58C66.15 10.96 66.34 11.31 66.62 11.6L69.78 14.85C69.78 14.87 69.79 14.89 69.79 14.91C69.79 14.93 69.78 14.95 69.78 14.98L69.04 19.52C68.97 19.91 69.01 20.32 69.16 20.69C69.32 21.06 69.57 21.38 69.9 21.61C70.23 21.84 70.62 21.98 71.02 22C71.42 22.02 71.82 21.92 72.17 21.73L75.9 19.66C75.91 19.65 75.93 19.64 75.96 19.64C75.98 19.64 76 19.65 76.02 19.66L79.75 21.73C80.1 21.92 80.49 22.01 80.89 21.99C81.29 21.96 81.68 21.83 82 21.6C82.33 21.37 82.58 21.05 82.74 20.68C82.89 20.31 82.94 19.91 82.88 19.52L82.19 15C82.17 14.98 82.17 14.96 82.17 14.94C82.17 14.91 82.17 14.89 82.19 14.88L85.39 11.6Z" fill="#FF7F4D" fill-opacity="1.000000" fill-rule="nonzero"/>
	</g>
	<rect id="star (1) 4" rx="-0.500000" width="23.000000" height="23.000000" transform="translate(96.500000 0.500000)" fill="#FFFFFF" fill-opacity="0"/>
	<g clip-path="url(#clip1099_8540)">
		<path id="Vector" d="M117.39 11.6C117.66 11.31 117.85 10.96 117.94 10.58C118.02 10.2 118 9.8 117.88 9.43C117.76 9.05 117.53 8.72 117.24 8.47C116.94 8.22 116.57 8.05 116.19 8L111.9 7.33C111.88 7.33 111.86 7.32 111.84 7.31C111.83 7.29 111.81 7.27 111.81 7.26L109.93 3.26C109.76 2.88 109.49 2.56 109.15 2.34C108.81 2.11 108.4 2 108 2C107.59 1.99 107.19 2.11 106.85 2.33C106.51 2.54 106.24 2.86 106.08 3.22L104.2 7.22C104.19 7.24 104.17 7.26 104.15 7.28C104.14 7.29 104.12 7.3 104.1 7.31L99.82 8C99.43 8.05 99.06 8.22 98.76 8.47C98.46 8.72 98.24 9.05 98.12 9.43C97.99 9.8 97.97 10.2 98.06 10.58C98.15 10.96 98.34 11.31 98.62 11.6L101.78 14.85C101.78 14.87 101.79 14.89 101.79 14.91C101.79 14.93 101.78 14.95 101.78 14.98L101.04 19.52C100.97 19.91 101.01 20.32 101.17 20.69C101.32 21.06 101.57 21.38 101.9 21.61C102.23 21.84 102.62 21.98 103.02 22C103.42 22.02 103.82 21.92 104.17 21.73L107.9 19.66C107.91 19.65 107.93 19.64 107.96 19.64C107.98 19.64 108 19.65 108.02 19.66L111.75 21.73C112.1 21.92 112.49 22.01 112.89 21.99C113.29 21.96 113.68 21.83 114 21.6C114.33 21.37 114.58 21.05 114.74 20.68C114.89 20.31 114.94 19.91 114.88 19.52L114.19 15C114.18 14.98 114.17 14.96 114.17 14.94C114.17 14.91 114.18 14.89 114.19 14.88L117.39 11.6Z" fill="#FF7F4D" fill-opacity="1.000000" fill-rule="nonzero"/>
	</g>
	<rect id="star (1) 5" rx="-0.500000" width="23.000000" height="23.000000" transform="translate(128.500000 0.500000)" fill="#FFFFFF" fill-opacity="0"/>
	<g clip-path="url(#clip1099_8542)">
		<path id="Vector" d="M149.39 11.6C149.66 11.31 149.85 10.96 149.94 10.58C150.02 10.2 150 9.8 149.88 9.43C149.76 9.05 149.53 8.72 149.24 8.47C148.94 8.22 148.57 8.05 148.19 8L143.89 7.33C143.88 7.33 143.86 7.32 143.84 7.31C143.83 7.29 143.81 7.27 143.81 7.26L141.93 3.26C141.76 2.88 141.49 2.56 141.15 2.34C140.81 2.11 140.4 2 140 2C139.59 1.99 139.19 2.11 138.85 2.33C138.51 2.54 138.24 2.86 138.08 3.22L136.2 7.22C136.19 7.24 136.17 7.26 136.15 7.28C136.14 7.29 136.12 7.3 136.1 7.31L131.82 8C131.43 8.05 131.06 8.22 130.76 8.47C130.46 8.72 130.24 9.05 130.12 9.43C129.99 9.8 129.97 10.2 130.06 10.58C130.15 10.96 130.34 11.31 130.62 11.6L133.78 14.85C133.78 14.87 133.79 14.89 133.79 14.91C133.79 14.93 133.78 14.95 133.78 14.98L133.03 19.52C132.97 19.91 133.01 20.32 133.17 20.69C133.32 21.06 133.57 21.38 133.9 21.61C134.23 21.84 134.62 21.98 135.02 22C135.42 22.02 135.82 21.92 136.17 21.73L139.89 19.66C139.91 19.65 139.93 19.64 139.96 19.64C139.98 19.64 140 19.65 140.02 19.66L143.75 21.73C144.1 21.92 144.49 22.01 144.89 21.99C145.29 21.96 145.68 21.83 146 21.6C146.33 21.37 146.58 21.05 146.74 20.68C146.89 20.31 146.94 19.91 146.88 19.52L146.19 15C146.17 14.98 146.17 14.96 146.17 14.94C146.17 14.91 146.17 14.89 146.19 14.88L149.39 11.6Z" fill="#F5F5F5" fill-opacity="1.000000" fill-rule="nonzero"/>
	</g>
</svg>
